<?xml version="1.0" standalone="no"?>
<!DOCTYPE svg PUBLIC "-//W3C//DTD SVG 1.1//EN" "http://www.w3.org/Graphics/SVG/1.1/DTD/svg11.dtd" >
<svg>
<metadata>
Created by FontForge 20120731 at Sat Jun 29 13:25:50 2019
 By www
Copyright (c) 2008 by TypeTogether. All rights reserved.
</metadata>
<defs>
<font id="BreeW01-ThinOblique" horiz-adv-x="1024" >
  <font-face 
    font-family="BreeW01-ThinOblique"
    font-weight="100"
    font-style="oblique"
    font-stretch="normal"
    units-per-em="2048"
    panose-1="2 0 5 3 0 0 0 9 0 4"
    ascent="1477"
    descent="-571"
    x-height="1008"
    cap-height="1362"
    bbox="-281 -545 2165 1819"
    underline-thickness="102"
    underline-position="-205"
    slope="-10"
    unicode-range="U+000D-2122"
  />
<missing-glyph horiz-adv-x="0" 
 />
    <glyph glyph-name=".notdef" horiz-adv-x="0" 
 />
    <glyph glyph-name=".null" horiz-adv-x="0" 
 />
    <glyph glyph-name="uni000D" unicode="&#xd;" horiz-adv-x="0" 
 />
    <glyph glyph-name="space" unicode=" " horiz-adv-x="451" 
 />
    <glyph glyph-name="exclam" unicode="!" horiz-adv-x="535" 
d="M451 1364q2 12 6.5 22.5t12.5 18.5t21 13t33 5q22 0 34.5 -4.5t17.5 -13t4.5 -19.5t-2.5 -24l-50 -277l-159 -747h-70l102 747zM195 57q0 25 9 45t23.5 34t33 22t38.5 8q22 0 39.5 -8t29.5 -20.5t18.5 -29t6.5 -34.5q0 -24 -8.5 -43.5t-23.5 -34t-34.5 -22t-41.5 -7.5
q-39 0 -64.5 24t-25.5 66z" />
    <glyph glyph-name="quotedbl" unicode="&#x22;" horiz-adv-x="719" 
d="M522 1362l-96 -451h-98l59 451h135zM809 1362l-96 -451h-99l60 451h135z" />
    <glyph glyph-name="numbersign" unicode="#" horiz-adv-x="1110" 
d="M705 336h-271l-88 -336h-110l88 336h-244l16 98h252l98 365h-245l16 96h254l92 344h111l-92 -344h270l92 344h111l-92 -344h235l-16 -96h-244l-98 -365h237l-16 -98h-246l-88 -336h-111zM459 434h270l98 365h-270z" />
    <glyph glyph-name="dollar" unicode="$" horiz-adv-x="1096" 
d="M455 -221l41 237q-63 3 -121.5 17t-106.5 32.5t-82 38t-47 33.5l62 84q17 -14 45 -32t67 -34.5t89 -29t110 -16.5l98 559q-60 22 -115.5 48t-97.5 63t-67 89t-25 127q0 71 28 133.5t82 110t133.5 75t182.5 29.5l33 187h96l-35 -193q60 -5 113 -21.5t97.5 -40.5t80 -52
t60.5 -54l-74 -71q-60 63 -132.5 101.5t-160.5 47.5l-90 -510q55 -19 112 -45t103 -64t75 -90.5t29 -125.5q0 -181 -114 -283.5t-332 -118.5l-41 -231h-96zM928 395q0 49 -18 86.5t-49 66t-72 49.5t-87 38l-92 -526q58 5 115 22.5t102 51t73 85.5t28 127zM418 1004
q0 -46 14.5 -82.5t42 -65t66.5 -50.5t88 -40l86 485q-48 0 -100.5 -13.5t-96 -42.5t-72 -76.5t-28.5 -114.5z" />
    <glyph glyph-name="percent" unicode="%" horiz-adv-x="1589" 
d="M1221 57q48 0 95.5 20.5t85 63.5t60.5 110t23 161q0 108 -42 163.5t-120 55.5q-57 0 -106 -25.5t-85 -73t-56.5 -115t-20.5 -151.5q0 -107 46.5 -158t119.5 -51zM1337 721q58 0 105 -18t80.5 -54t52 -89t18.5 -122q0 -98 -25 -183t-74 -147.5t-120 -98.5t-162 -36
q-65 0 -114 20t-81.5 57.5t-48.5 90.5t-16 119q0 102 27.5 187t77.5 145.5t121.5 94.5t158.5 34zM612 1346q58 0 105 -18.5t80.5 -54t52 -88.5t18.5 -122q0 -98 -25 -183t-74 -147.5t-120 -98.5t-162 -36q-65 0 -114 20t-81.5 57.5t-48.5 90.5t-16 119q0 102 27.5 187
t77.5 145.5t121.5 94.5t158.5 34zM498 686q48 0 95.5 20.5t85 63.5t60.5 110t23 160q0 109 -41.5 164.5t-120.5 55.5q-57 0 -106 -25.5t-85 -73t-56.5 -115t-20.5 -151.5q0 -107 46.5 -158t119.5 -51zM455 45l825 1286l88 -43l-829 -1288z" />
    <glyph glyph-name="ampersand" unicode="&#x26;" horiz-adv-x="1606" 
d="M723 59q99 0 191 29.5t171 88t141.5 147t102.5 206.5h279l-17 -88h-194q-39 -95 -101.5 -180.5t-148.5 -150t-195.5 -102.5t-242.5 -38q-96 0 -167.5 19.5t-123.5 54t-86 81t-54 100.5t-28 113t-8 118q0 126 42.5 243t120 207.5t184.5 144.5t236 54q55 0 101.5 -12.5
t80.5 -36.5t53 -60t19 -84q0 -50 -17 -94t-47 -82t-70.5 -69t-88.5 -54q147 26 258.5 86t195.5 141t144.5 176t104.5 191l86 -26q-48 -103 -104 -193t-125 -164.5t-153.5 -133.5t-189.5 -99q-137 -54 -317 -73.5t-406 -16.5q-11 -112 10.5 -195.5t70 -138.5t123 -82
t169.5 -27zM797 1018q-59 0 -124 -24.5t-125.5 -77t-110 -133.5t-75.5 -195q78 -1 153.5 5.5t143 21t125 38.5t99 57.5t65 77.5t23.5 99q0 22 -8 45.5t-27.5 42.5t-53.5 31t-85 12z" />
    <glyph glyph-name="quotesingle" unicode="'" horiz-adv-x="432" 
d="M522 1362l-96 -451h-98l59 451h135z" />
    <glyph glyph-name="parenleft" unicode="(" horiz-adv-x="616" 
d="M279 354q0 137 27.5 270.5t80.5 268t130.5 271t178.5 278.5l82 -49q-97 -140 -171 -266.5t-124.5 -250t-76 -249.5t-25.5 -265q0 -74 6.5 -154t18.5 -161t30 -161t41 -154l-94 -35q-26 75 -45 159t-32.5 169.5t-20 169.5t-6.5 159z" />
    <glyph glyph-name="parenright" unicode=")" horiz-adv-x="616" 
d="M539 784q0 -142 -28.5 -278.5t-82 -270.5t-129.5 -268t-170 -270l-84 47q89 135 161.5 260.5t123.5 249.5t78.5 251.5t27.5 266.5q0 152 -27.5 311.5t-78.5 309.5l96 43q28 -78 49 -161.5t35 -167.5t21.5 -166t7.5 -157z" />
    <glyph glyph-name="asterisk" unicode="*" horiz-adv-x="809" 
d="M657 1141q22 -6 38 -15t30 -18q14 -10 28.5 -25.5t26.5 -33.5t19.5 -37t7.5 -37q0 -25 -15.5 -41t-41.5 -16q-28 0 -47 18t-30.5 43.5t-16.5 53.5t-5 48q0 28 6 60zM561 1139q-9 -56 -29 -97t-38 -67q-23 -32 -48 -44.5t-45 -12.5q-24 0 -38.5 15.5t-14.5 35.5
q0 37 23 65.5t56.5 49.5t70 34.5t63.5 20.5zM543 1225q-26 -10 -55.5 -13.5t-49.5 -3.5q-19 0 -42.5 4t-44 13.5t-34.5 24.5t-14 36q0 29 20 42t48 13q30 0 56.5 -10t48.5 -26.5t39 -37.5t28 -42zM694 1225q20 22 44 42.5t50.5 36.5t55.5 25.5t59 9.5q26 0 46 -11.5
t20 -37.5t-16.5 -42.5t-39.5 -26.5t-49 -13.5t-45 -3.5q-32 0 -65.5 5t-59.5 16zM633 1280q-9 15 -15.5 34t-11.5 38.5t-7.5 38t-2.5 32.5q0 15 3.5 36.5t12 40.5t22.5 32.5t36 13.5q29 0 40 -18t11 -49q0 -63 -27 -112.5t-61 -86.5z" />
    <glyph glyph-name="plus" unicode="+" horiz-adv-x="1096" 
d="M686 1079h102l-65 -372h373l-17 -95h-372l-66 -370h-102l65 370h-373l17 95h373z" />
    <glyph glyph-name="comma" unicode="," horiz-adv-x="434" 
d="M111 -236l-54 19q25 80 50 157t51 154q18 56 39 80.5t49 24.5q15 0 29.5 -5t27.5 -12.5t23.5 -16t17.5 -15.5z" />
    <glyph glyph-name="hyphen" unicode="-" horiz-adv-x="659" 
d="M170 621h537l-17 -99h-536z" />
    <glyph glyph-name="period" unicode="." horiz-adv-x="412" 
d="M115 61q0 28 10 51t27 39.5t39 25.5t45 9q42 0 66 -23.5t24 -62.5q0 -26 -9.5 -48.5t-26 -39.5t-38.5 -27t-47 -10q-44 0 -67 23t-23 63z" />
    <glyph glyph-name="slash" unicode="/" horiz-adv-x="780" 
d="M-18 -158l962 1667l90 -45l-966 -1669z" />
    <glyph glyph-name="zero" unicode="0" horiz-adv-x="1096" 
d="M782 1346q81 0 145.5 -22.5t110.5 -71t70.5 -126t24.5 -188.5q0 -113 -27 -266q-32 -179 -81.5 -309.5t-118.5 -215.5t-158.5 -126t-200.5 -41q-84 0 -149.5 23t-110.5 72.5t-68.5 126.5t-23.5 185q0 59 6 126.5t20 145.5q31 176 84.5 305.5t125 214t160 126t191.5 41.5z
M559 68q73 0 139 27t122.5 95t101.5 184t77 294q14 78 20.5 144t6.5 122q0 93 -18 155t-50 99.5t-77 53t-99 15.5q-82 0 -153 -32t-128.5 -105t-102 -191t-74.5 -290q-13 -74 -19 -136.5t-6 -115.5q0 -91 18 -152t52 -98t82 -53t108 -16z" />
    <glyph glyph-name="one" unicode="1" horiz-adv-x="821" 
d="M455 88l194 1118l-373 -186l-32 67l418 232h118l-28 -111l-197 -1120h260l-16 -88h-629l16 88h269z" />
    <glyph glyph-name="two" unicode="2" horiz-adv-x="1028" 
d="M324 1178q43 37 92.5 68t103.5 53.5t111.5 34.5t116.5 12q72 0 127 -21t92.5 -58t57 -88t19.5 -112q0 -68 -16.5 -126.5t-47.5 -112t-75.5 -104.5t-99.5 -103l-565 -533h718l-16 -88h-842l17 88l573 549q59 57 105.5 108t78.5 101.5t49 102t17 108.5q0 50 -15 87.5
t-41.5 62.5t-63.5 37.5t-81 12.5q-57 0 -109 -14t-98 -36t-85.5 -48t-71.5 -51z" />
    <glyph glyph-name="three" unicode="3" horiz-adv-x="1051" 
d="M293 1147q50 44 105.5 80.5t114.5 63t121 41t124 14.5q79 0 135.5 -22.5t92.5 -60t52.5 -85t16.5 -97.5q0 -54 -11.5 -102.5t-38.5 -93t-72 -86t-112 -80.5q63 -66 99 -142t36 -165t-28 -168t-87 -139t-150 -95t-216 -35q-57 0 -112.5 9.5t-103.5 24.5t-85 32.5t-57 32.5
l49 84q26 -17 60 -34t75 -30.5t89 -22t102 -8.5q80 0 146.5 24t114.5 67.5t74.5 105t26.5 135.5q0 81 -29 149t-94 130q-30 -15 -68 -28t-74 -24t-66 -18.5t-44 -11.5l-18 86q117 31 208.5 65t154.5 79.5t95.5 107t32.5 147.5q0 82 -52 131t-152 49q-104 0 -200 -43.5
t-202 -128.5z" />
    <glyph glyph-name="four" unicode="4" horiz-adv-x="1038" 
d="M961 911l-82 -465h204l-14 -86h-205l-63 -360h-107l64 358h-604l16 99l578 880l81 -47l-555 -844h498l33 181l90 284h66z" />
    <glyph glyph-name="five" unicode="5" horiz-adv-x="993" 
d="M473 1319h619l-17 -88h-536l-146 -467q108 1 206.5 -14t172.5 -54.5t118 -108.5t44 -177q0 -75 -24 -152t-80.5 -140t-150 -103t-233.5 -40q-62 0 -122 11t-110.5 27.5t-87.5 35t-52 33.5l55 82q23 -15 55 -33t73 -33t90.5 -25t107.5 -10q103 0 173.5 30.5t114 78.5
t63 108t19.5 119q0 69 -21.5 117.5t-59.5 80t-90 49.5t-113 26t-128.5 9.5t-136.5 0.5z" />
    <glyph glyph-name="six" unicode="6" horiz-adv-x="1096" 
d="M993 1276q-128 -20 -235.5 -72t-189.5 -127.5t-137 -171t-79 -203.5q41 27 87 50.5t94 41t96.5 27.5t93.5 10q75 0 135.5 -24.5t103 -69t65 -107.5t22.5 -141q0 -99 -33 -192t-96 -165t-155.5 -115.5t-211.5 -43.5q-95 0 -160 34t-104.5 92t-56.5 135t-17 163
q0 108 16 213.5t52 202.5t94.5 184t143.5 158t199 124.5t261 84.5zM940 481q0 59 -15 107t-45 82t-74.5 52.5t-103.5 18.5q-50 0 -102.5 -13.5t-101 -34t-90.5 -45.5t-70 -48q-12 -57 -14 -110.5t-2 -106.5q0 -68 13 -126.5t41.5 -102t74 -68.5t110.5 -25q82 0 151.5 31.5
t120 88t79 133.5t28.5 167z" />
    <glyph glyph-name="seven" unicode="7" horiz-adv-x="887" 
d="M289 1319h803l-17 -90q-174 -134 -294 -278t-199.5 -293.5t-126 -301.5t-74.5 -301l-10 -55h-107l12 72q25 138 69.5 284.5t121 294.5t190.5 295t277 285h-662z" />
    <glyph glyph-name="eight" unicode="8" horiz-adv-x="1085" 
d="M199 258q0 63 17 116t45.5 97t66 80t78 64.5t82 51t77.5 40.5q-32 19 -66 45t-62 60t-46 78t-18 99q0 74 30.5 139t85 113.5t130 76.5t165.5 28q82 0 139.5 -21.5t93.5 -56.5t52 -79.5t16 -90.5q0 -66 -24 -122.5t-64.5 -105t-94.5 -90.5t-114 -78q101 -52 160.5 -130.5
t59.5 -180.5q0 -74 -26 -148.5t-82 -134t-144 -96.5t-211 -37q-95 0 -161 25t-107 65t-59.5 91t-18.5 102zM899 373q0 58 -22 104t-56.5 81t-78 61t-85.5 45q-61 -28 -123.5 -64.5t-112.5 -83.5t-82 -105.5t-32 -129.5q0 -42 13.5 -81.5t44 -70t79 -48.5t119.5 -18
q78 0 140.5 24.5t106 66.5t66.5 98.5t23 120.5zM768 1257q-70 0 -123.5 -21.5t-90 -56.5t-55 -79.5t-18.5 -91.5q0 -89 58.5 -153.5t158.5 -113.5q52 28 102 63t89.5 77t63.5 91t24 105q0 35 -12.5 67.5t-38 57.5t-65 40t-93.5 15z" />
    <glyph glyph-name="nine" unicode="9" horiz-adv-x="1096" 
d="M317 41q132 25 240 77.5t190 127t135.5 168t75.5 200.5q-41 -33 -86 -57t-91.5 -39.5t-91.5 -23t-85 -7.5q-84 0 -147.5 24.5t-107 68t-65.5 104.5t-22 135q0 102 32.5 197t94.5 168.5t152.5 117.5t206.5 44q94 0 160.5 -33t108.5 -90.5t61.5 -137t19.5 -172.5
q0 -106 -15.5 -210t-51 -200.5t-94 -183t-143.5 -157.5t-200 -124t-264 -83zM371 827q0 -54 15 -100t46 -80.5t78.5 -54t112.5 -19.5q46 0 93 10.5t92.5 30t87.5 46.5t77 59q9 49 13.5 103.5t4.5 107.5q0 68 -13 127.5t-43 104t-79 70t-121 25.5q-76 0 -142.5 -31
t-115.5 -88t-77.5 -136t-28.5 -175z" />
    <glyph glyph-name="colon" unicode=":" horiz-adv-x="412" 
d="M115 61q0 28 10 51t27 39.5t39 25.5t45 9q42 0 66 -23.5t24 -62.5q0 -26 -9.5 -48.5t-26 -39.5t-38.5 -27t-47 -10q-44 0 -67 23t-23 63zM256 862q0 28 10 51t27 39.5t39 25.5t45 9q42 0 66 -23.5t24 -62.5q0 -26 -9.5 -48.5t-26 -39.5t-38.5 -27t-47 -10q-44 0 -67 23
t-23 63z" />
    <glyph glyph-name="semicolon" unicode=";" horiz-adv-x="434" 
d="M285 862q0 28 10 51t27 39.5t39 25.5t45 9q42 0 66 -23.5t24 -62.5q0 -26 -9.5 -48.5t-26 -39.5t-38.5 -27t-47 -10q-44 0 -67 23t-23 63zM111 -236l-54 19q25 80 50 157t51 154q18 56 39 80.5t49 24.5q15 0 29.5 -5t27.5 -12.5t23.5 -16t17.5 -15.5z" />
    <glyph glyph-name="less" unicode="&#x3c;" horiz-adv-x="1096" 
d="M1096 961l-713 -308l598 -301l-47 -80l-662 336l19 101l776 338z" />
    <glyph glyph-name="equal" unicode="=" horiz-adv-x="1096" 
d="M1038 432h-829l16 90h830zM1098 764h-830l17 90h829z" />
    <glyph glyph-name="greater" unicode="&#x3e;" horiz-adv-x="1096" 
d="M344 967l47 80l662 -334l-19 -105l-772 -332l-26 84l704 306z" />
    <glyph glyph-name="question" unicode="?" horiz-adv-x="721" 
d="M834 1182q0 -78 -23 -136t-62 -104t-89.5 -83t-104.5 -73q-57 -38 -92.5 -67.5t-57 -59.5t-32.5 -63t-19 -78l-28 -166h-90q6 50 11 96.5t13 100.5q9 62 28 104t48.5 74.5t70.5 61.5t95 67q40 28 80 57.5t72 64.5t51.5 78.5t19.5 100.5q0 48 -15.5 81.5t-43 54
t-64.5 29.5t-80 9q-54 0 -104 -8.5t-90 -22.5l-4 86q46 17 103 27t116 10q71 0 125.5 -18t91 -50.5t55.5 -76.5t19 -96zM154 57q0 25 9 45t23.5 34t33 22t38.5 8q22 0 39.5 -8t29.5 -20.5t18.5 -29t6.5 -34.5q0 -24 -8.5 -43.5t-23.5 -34t-34.5 -22t-41.5 -7.5q-38 0 -64 24
t-26 66z" />
    <glyph glyph-name="at" unicode="@" horiz-adv-x="1960" 
d="M1823 723q0 110 -33.5 205t-104.5 165t-182 110t-266 40q-145 0 -269 -34.5t-226 -97t-181 -150t-132.5 -193.5t-81.5 -227.5t-28 -251.5q0 -135 36.5 -244.5t110.5 -187t187 -119t265 -41.5q48 0 99 5.5t101.5 15.5t98.5 24.5t90 32.5l16 -88q-84 -35 -193.5 -56.5
t-234.5 -21.5q-183 0 -312.5 51.5t-212 141t-121 209t-38.5 255.5q0 170 36.5 316t103 265t160.5 210.5t209.5 153.5t249 94t279.5 32q161 0 287 -42t213 -120.5t132.5 -190.5t45.5 -251q0 -188 -47 -325.5t-132.5 -228.5t-204 -135t-261.5 -44h-47l10 125h-6
q-21 -26 -50.5 -51t-67 -44t-84 -30.5t-103.5 -11.5q-81 0 -137 25t-90.5 69t-50 102.5t-15.5 126.5q0 138 38 251t109 193t172 123.5t226 43.5q23 0 54.5 -3t68 -9.5t75 -16.5t76.5 -23l-131 -788q104 10 194 45t157 108.5t105 192t38 295.5zM1352 805q-31 12 -79.5 20.5
t-111.5 8.5q-111 0 -190 -45.5t-129.5 -118.5t-74.5 -164.5t-24 -183.5q0 -45 10 -90t34.5 -80.5t65.5 -57.5t103 -22q68 0 121 18q81 28 127.5 85.5t59.5 125.5z" />
    <glyph glyph-name="A" unicode="A" horiz-adv-x="1219" 
d="M51 0l725 1362h135l256 -1362h-102l-86 459h-576l-241 -459h-111zM453 551h510l-129 723z" />
    <glyph glyph-name="B" unicode="B" horiz-adv-x="1151" 
d="M801 1362q70 0 136 -12t117 -43.5t82 -85.5t31 -138q0 -69 -21 -125t-60 -99t-94 -74t-124 -50q58 -7 105 -28.5t80.5 -58t52 -87.5t18.5 -115q0 -104 -36 -187t-106.5 -140.5t-174.5 -88t-240 -30.5h-383l240 1362h377zM303 88h283q127 0 210 30t131.5 79.5t67.5 112.5
t19 128q0 124 -81 186t-233 62h-292zM424 774h229q109 0 186.5 23t126.5 64t72 97t23 123q0 61 -23 98.5t-61.5 58.5t-89.5 28.5t-107 7.5h-268z" />
    <glyph glyph-name="C" unicode="C" horiz-adv-x="1200" 
d="M715 66q100 0 195 37.5t198 117.5l51 -71q-105 -87 -222.5 -131t-238.5 -44q-111 0 -199 33t-149.5 99t-94 165.5t-32.5 233.5q0 164 31 292.5t84.5 226.5t124.5 166.5t151 112t164 63t164 19.5q49 0 102.5 -10.5t106 -35t101 -66.5t87.5 -105l-79 -51q-27 39 -59.5 71.5
t-72 56t-88 36t-106.5 12.5q-134 0 -244.5 -55.5t-190 -157t-123.5 -243.5t-44 -316q0 -107 23 -191.5t70 -143t119.5 -90t170.5 -31.5z" />
    <glyph glyph-name="D" unicode="D" horiz-adv-x="1313" 
d="M424 1362h397q120 0 215 -32t161 -96t101 -159.5t35 -222.5q0 -150 -28 -271.5t-78 -216t-119 -163.5t-151 -113.5t-174.5 -66t-188.5 -21.5h-410zM303 88h303q139 0 253 52t195.5 149.5t126 237.5t44.5 315q0 123 -32.5 205.5t-90 133t-137 72t-172.5 21.5h-281z" />
    <glyph glyph-name="E" unicode="E" horiz-adv-x="987" 
d="M424 1362h723l-14 -88h-621l-94 -535h532l-16 -88h-533l-98 -563h635l-16 -88h-738z" />
    <glyph glyph-name="F" unicode="F" horiz-adv-x="995" 
d="M1202 1362l-14 -88h-676l-94 -531h561l-16 -88h-562l-114 -655h-103l240 1362h778z" />
    <glyph glyph-name="G" unicode="G" horiz-adv-x="1260" 
d="M1126 96q-92 -55 -209.5 -88t-244.5 -33q-110 0 -196 33t-145.5 98.5t-90.5 164t-31 229.5q0 164 30 293.5t81.5 228t120 168t146.5 113t161 63.5t163 20q51 0 106 -10t108.5 -34t103 -65t88.5 -103l-80 -56q-27 39 -60 71t-74 55.5t-91 36.5t-111 13q-130 0 -237.5 -57
t-184.5 -159.5t-119.5 -246t-42.5 -317.5q0 -107 22.5 -191t69.5 -141.5t119 -88t172 -30.5q48 0 97 7.5t94 19.5t82 27.5t61 32.5l86 493h-385l17 88h487z" />
    <glyph glyph-name="H" unicode="H" horiz-adv-x="1370" 
d="M1425 1362l-239 -1362h-103l119 674h-796l-119 -674h-103l240 1362h102l-104 -600h797l104 600h102z" />
    <glyph glyph-name="I" unicode="I" horiz-adv-x="471" 
d="M184 0l240 1362h102l-239 -1362h-103z" />
    <glyph glyph-name="J" unicode="J" horiz-adv-x="840" 
d="M111 168q21 -21 46 -40t54.5 -33.5t63.5 -23t75 -8.5q62 0 106.5 17t74.5 47t47.5 71t25.5 89l189 1075h102l-188 -1069q-14 -78 -40 -137.5t-69 -99.5t-105 -60.5t-149 -20.5q-56 0 -102.5 11.5t-83.5 29t-65 39t-46 41.5z" />
    <glyph glyph-name="K" unicode="K" horiz-adv-x="1141" 
d="M813 840l291 -840h-115l-264 752l-379 -402l-61 -350h-101l240 1362h100l-151 -858l805 858h120z" />
    <glyph glyph-name="L" unicode="L" horiz-adv-x="979" 
d="M428 1362h102l-223 -1274h627l-16 -88h-730z" />
    <glyph glyph-name="M" unicode="M" horiz-adv-x="1700" 
d="M1526 1362h153l-163 -1362h-101l156 1264l-647 -1090h-103l-243 1086l-293 -1260h-101l320 1362h145l244 -1077z" />
    <glyph glyph-name="N" unicode="N" horiz-adv-x="1372" 
d="M1427 1362l-239 -1362h-135l-545 1253l-221 -1253h-103l240 1362h147l537 -1243l217 1243h102z" />
    <glyph glyph-name="O" unicode="O" horiz-adv-x="1352" 
d="M1350 672q-29 -177 -90 -308.5t-149 -217.5t-200.5 -128.5t-244.5 -42.5q-106 0 -189 32t-140.5 94.5t-87.5 154.5t-30 213q0 51 4 110t15 119q23 132 63.5 234t93.5 178.5t116.5 129t131.5 85t139 47t140 14.5q95 0 176.5 -29.5t141 -89.5t93 -152t33.5 -216
q0 -49 -2.5 -107t-13.5 -120zM346 694q-9 -52 -13.5 -110t-4.5 -109q0 -87 17.5 -161.5t60 -129.5t114 -86.5t178.5 -31.5q124 0 217.5 52t160 137.5t106.5 194t57 222.5q6 46 12 93.5t6 96.5q0 84 -16 162t-55.5 138t-105.5 96t-165 36q-84 0 -155 -23.5t-129.5 -65
t-105.5 -98.5t-82.5 -123.5t-59.5 -140.5t-37 -149z" />
    <glyph glyph-name="P" unicode="P" horiz-adv-x="1153" 
d="M287 0h-103l240 1362h410q90 0 163 -22t124.5 -64t79.5 -103.5t28 -140.5q0 -128 -42 -225t-117 -161.5t-179 -97t-227 -32.5h-287zM637 604q104 0 192.5 22.5t153 72.5t101 129t36.5 192q0 87 -31 138t-82.5 76.5t-119.5 32.5t-142 7h-233l-119 -670h244z" />
    <glyph glyph-name="Q" unicode="Q" horiz-adv-x="1317" 
d="M360 858q0 -123 66.5 -197t200.5 -114l-39 -86q-54 15 -113 40.5t-108 70t-81 110t-32 160.5q0 114 44 213.5t123.5 173t190 115.5t242.5 42q98 0 182.5 -30t147 -91.5t98 -156t35.5 -223.5q0 -109 -22.5 -212.5t-63.5 -200t-98 -184t-125 -165.5q67 -74 124 -127.5
t118 -91.5t133.5 -63t172.5 -42l-38 -82q-99 15 -176.5 42.5t-144.5 68t-130.5 96t-134.5 127.5q-54 -48 -110.5 -86.5t-116.5 -65.5t-124.5 -42t-134.5 -15q-78 0 -129.5 19t-82.5 48.5t-43.5 66t-12.5 71.5q0 74 30 128t79 89.5t112 52.5t129 17q59 0 112 -11t102 -31.5
t95.5 -49.5t94.5 -64q54 56 103.5 134t88 169t61.5 190.5t23 200.5q0 94 -20 172t-64.5 134t-115.5 87t-172 31q-95 0 -181 -32.5t-151.5 -91t-104.5 -139t-39 -175.5zM860 113q-95 73 -176.5 100t-144.5 27q-57 0 -103 -11.5t-79 -33.5t-50.5 -54t-17.5 -73q0 -28 8 -52.5
t28 -42.5t53.5 -28.5t84.5 -10.5q53 0 105 13t102.5 37t98 57t91.5 72z" />
    <glyph glyph-name="R" unicode="R" horiz-adv-x="1184" 
d="M287 0h-103l240 1362h401q97 0 172 -18t126 -55.5t77.5 -95t26.5 -136.5q0 -112 -33 -190t-84 -129t-112.5 -79t-118.5 -41q24 -8 41.5 -18.5t30.5 -27.5t23 -41.5t21 -61.5l138 -469h-109l-129 426q-10 33 -21 60.5t-27.5 47t-40 30.5t-58.5 11h-359zM711 664
q90 0 165.5 26t129.5 74.5t84 119t30 160.5q0 78 -27.5 123.5t-76 69t-116 30.5t-148.5 7h-240l-109 -610h308z" />
    <glyph glyph-name="S" unicode="S" horiz-adv-x="1092" 
d="M184 195q18 -15 50 -36.5t77 -41.5t102 -34.5t124 -14.5q61 0 127 11.5t121 44.5t90.5 92.5t35.5 156.5q0 61 -22.5 104t-61 74.5t-90 55.5t-108.5 46q-62 24 -121.5 51t-107 67t-76.5 97t-29 140q0 84 32.5 154t93 119.5t146.5 77t193 27.5q73 0 136 -16t114.5 -42
t91.5 -58.5t67 -65.5l-71 -65q-68 72 -151.5 113.5t-192.5 41.5q-59 0 -120 -12.5t-111.5 -43.5t-82.5 -83.5t-32 -132.5q0 -65 23 -109t61.5 -76.5t88 -56t103.5 -45.5q61 -25 121.5 -52t108.5 -66t78 -94.5t30 -137.5q0 -94 -30.5 -169.5t-90.5 -129t-149.5 -82.5
t-208.5 -29q-76 0 -144.5 14.5t-123.5 35.5t-94.5 45t-57.5 43z" />
    <glyph glyph-name="T" unicode="T" horiz-adv-x="1030" 
d="M1212 1362l-14 -88h-426l-225 -1274h-103l226 1274h-420l14 88h948z" />
    <glyph glyph-name="U" unicode="U" horiz-adv-x="1288" 
d="M516 1362l-168 -952q-5 -28 -7.5 -53t-2.5 -48q0 -70 22.5 -117t64.5 -75.5t102 -41t135 -12.5q87 0 157 18t123 58t88 104t51 156l170 963h103l-174 -989q-19 -106 -64 -181.5t-113 -123.5t-156.5 -70.5t-193.5 -22.5q-100 0 -177.5 18t-131 57t-81 99.5t-27.5 145.5
q0 26 2 55t8 60l168 952h102z" />
    <glyph glyph-name="V" unicode="V" horiz-adv-x="1126" 
d="M489 0l-227 1362h107l196 -1237l627 1237h115l-701 -1362h-117z" />
    <glyph glyph-name="W" unicode="W" horiz-adv-x="1655" 
d="M1001 1102l-479 -1102h-151l-76 1362h100l68 -1260l493 1143h134l96 -1147l516 1264h104l-561 -1362h-151z" />
    <glyph glyph-name="X" unicode="X" horiz-adv-x="1130" 
d="M1292 1362l-536 -643l364 -719h-114l-330 633l-533 -633h-133l608 725l-307 637h125l264 -559l459 559h133z" />
    <glyph glyph-name="Y" unicode="Y" horiz-adv-x="1030" 
d="M1229 1362l-588 -846l-90 -516h-102l90 516l-299 846h112l254 -733l500 733h123z" />
    <glyph glyph-name="Z" unicode="Z" horiz-adv-x="977" 
d="M195 88h737l-17 -88h-843l18 104l922 1170h-701l15 88h804l-18 -111z" />
    <glyph glyph-name="bracketleft" unicode="[" horiz-adv-x="604" 
d="M477 1423h350l-18 -94h-248l-270 -1536h248l-17 -94h-350z" />
    <glyph glyph-name="backslash" unicode="\" horiz-adv-x="780" 
d="M375 1509l373 -1667l-97 -20l-377 1663z" />
    <glyph glyph-name="bracketright" unicode="]" horiz-adv-x="604" 
d="M326 -301h-351l17 94h248l270 1536h-248l19 94h350z" />
    <glyph glyph-name="asciicircum" unicode="^" horiz-adv-x="1071" 
d="M983 616l-219 646l-453 -648l-96 23l500 709h121l243 -713z" />
    <glyph glyph-name="underscore" unicode="_" 
d="M-27 -152h1024l-18 -98h-1024z" />
    <glyph glyph-name="grave" unicode="`" 
d="M895 1196l-55 -35q-73 90 -119.5 148.5t-69.5 95.5q-11 17 -18.5 35t-7.5 35q0 18 9.5 30.5t25 21.5t36 14.5t41.5 10.5z" />
    <glyph glyph-name="a" unicode="a" horiz-adv-x="1092" 
d="M958 164l-14 -164h-98l12 129l-6 2q-27 -31 -60 -59.5t-74.5 -51t-92 -36t-111.5 -13.5q-67 0 -115 13q-58 15 -100 47.5t-69 79t-39.5 104t-12.5 121.5q0 153 38.5 281.5t114 221.5t186.5 145t255 52q31 0 70.5 -3t83 -10t89 -18.5t87.5 -27.5zM987 909q-28 16 -89 27.5
t-138 11.5q-96 0 -168.5 -27.5t-126 -74t-89 -107.5t-56.5 -127.5t-30 -135.5t-9 -130q0 -54 11.5 -106.5t40 -93.5t76 -66t119.5 -25q76 0 138 23t107.5 61t74 85.5t37.5 97.5z" />
    <glyph glyph-name="b" unicode="b" horiz-adv-x="1090" 
d="M418 1423h102l-94 -526q139 139 330 139q81 0 143.5 -27t105 -77.5t64 -124t21.5 -166.5q0 -154 -36.5 -278t-106.5 -211t-172.5 -134t-233.5 -47q-48 0 -101 7.5t-102.5 20t-92 29.5t-69.5 35zM289 121q15 -11 40.5 -22.5t58.5 -20.5t72.5 -15t82.5 -6q49 0 100.5 11
t100.5 37t92.5 69t76 107t51.5 151t19 201q0 51 -11.5 107t-40 102.5t-78 77t-124.5 30.5q-59 0 -115.5 -17.5t-102 -48.5t-76.5 -74.5t-40 -94.5z" />
    <glyph glyph-name="c" unicode="c" horiz-adv-x="911" 
d="M551 59q66 0 144 23t147 74l45 -72q-25 -21 -63 -41t-84 -36t-97.5 -26t-103.5 -10q-91 0 -157.5 26.5t-110 76.5t-64.5 122t-21 164q0 132 24.5 233.5t65.5 176.5t95 126t112 82t117 44.5t111 13.5q43 0 88 -9t87 -29.5t79 -54.5t63 -85l-78 -47q-46 75 -106 106
t-137 31q-84 0 -159.5 -36.5t-132.5 -108.5t-90.5 -178.5t-33.5 -247.5q0 -73 13 -132t43.5 -100t80.5 -63.5t123 -22.5z" />
    <glyph glyph-name="d" unicode="d" horiz-adv-x="1092" 
d="M758 1036q71 0 130 -12.5t113 -32.5l78 432h103l-221 -1251l-19 -172h-96l10 131l-6 2q-43 -47 -87 -78t-86.5 -50t-83 -26.5t-77.5 -7.5q-91 0 -154.5 30t-103.5 82t-58 123t-18 152q0 149 38 273.5t111.5 214.5t181 140t245.5 50zM985 901q-38 20 -96.5 34.5
t-145.5 14.5q-114 0 -199.5 -46.5t-142.5 -126t-85.5 -185t-28.5 -223.5q0 -62 12 -118.5t40 -99.5t74.5 -68.5t114.5 -25.5q73 0 134.5 23t108 59.5t75.5 81t37 88.5z" />
    <glyph glyph-name="e" unicode="e" horiz-adv-x="922" 
d="M868 811q0 72 -42.5 107.5t-114.5 35.5q-95 0 -165 -40.5t-118 -102t-77 -133.5t-42 -135q29 -3 81.5 -3t114.5 7.5t126.5 24t117 47.5t86 78t33.5 114zM719 1036q61 0 109 -15t81 -42.5t50.5 -65.5t17.5 -84q0 -69 -22 -122.5t-60 -93.5t-87.5 -67.5t-105.5 -45.5
t-114.5 -28t-112.5 -13.5t-101.5 -3t-80.5 3.5q-9 -74 -2.5 -145.5t35.5 -128t86 -91.5t149 -35q56 0 102.5 12t82 28t60 32t36.5 25l45 -72q-26 -21 -62 -41t-79.5 -36t-93 -26t-103.5 -10q-95 0 -164 29.5t-113 82t-65 126t-21 162.5q0 135 35.5 256t104 211.5t167.5 144
t226 53.5z" />
    <glyph glyph-name="f" unicode="f" horiz-adv-x="612" 
d="M193 -430h-103l272 1548q12 64 31.5 123t57 104t98.5 72t156 27q38 0 74.5 -5.5t68 -14t56.5 -19t40 -19.5l-43 -75q-34 17 -86 31t-110 14t-98 -14.5t-68 -44.5t-45 -76t-29 -109l-19 -104h334l-14 -82h-334z" />
    <glyph glyph-name="g" unicode="g" horiz-adv-x="1098" 
d="M428 -539q-133 0 -200.5 57t-67.5 167q0 79 31.5 139.5t82.5 107t115.5 81t130.5 63.5q-62 4 -120.5 22.5t-104 60t-73 109.5t-27.5 172q0 145 42 256.5t116 187t174.5 114t217.5 38.5q40 0 87 -4t95 -12t94.5 -20.5t84.5 -30.5l-133 -758q-13 -74 -26 -146.5t-32 -146.5
q-56 -227 -173.5 -342t-313.5 -115zM995 911q-51 20 -114 31.5t-142 11.5q-46 0 -96 -9.5t-99 -32.5t-93.5 -61t-78 -95.5t-53.5 -136.5t-20 -183q0 -51 11.5 -101.5t40.5 -91t80 -66t130 -25.5q63 0 121.5 20.5t105.5 58t79.5 89.5t43.5 116zM266 -297q0 -85 47.5 -120.5
t130.5 -35.5q89 0 154.5 37.5t111.5 100.5t75 145.5t46 173.5l37 197q-48 -57 -121 -98.5t-161 -79.5q-62 -27 -119 -57.5t-101.5 -68.5t-71.5 -85.5t-28 -108.5z" />
    <glyph glyph-name="h" unicode="h" horiz-adv-x="1104" 
d="M166 0l252 1423h102l-100 -563q40 47 86.5 80.5t94.5 54.5t96.5 31t93.5 10q134 0 202 -62t68 -183q0 -23 -2.5 -55t-7.5 -60l-119 -676h-103l115 647q5 29 7.5 62t2.5 61q0 41 -8.5 74.5t-29.5 57.5t-56.5 37t-89.5 13q-71 0 -136.5 -25.5t-117.5 -66t-87 -92
t-44 -102.5l-117 -666h-102z" />
    <glyph glyph-name="i" unicode="i" horiz-adv-x="434" 
d="M168 0l178 1008h103l-179 -1008h-102zM362 1280q0 22 8.5 41t22.5 32.5t32 21t38 7.5q29 0 48 -20t19 -51q0 -23 -8.5 -42t-22.5 -32.5t-32 -21t-37 -7.5q-31 0 -49.5 20t-18.5 52z" />
    <glyph glyph-name="j" unicode="j" horiz-adv-x="434" 
d="M346 1008h103l-197 -1108q-12 -72 -27 -137t-46.5 -114t-86 -77.5t-145.5 -28.5q-23 0 -53 4.5t-60 12.5t-57 19.5t-45 25.5l47 76q40 -25 80.5 -39.5t93.5 -14.5q37 0 67 10.5t53 36t40 67.5t28 105zM367 1280q0 22 8 41t22 32.5t32 21t38 7.5q29 0 48.5 -20t19.5 -51
q0 -23 -8.5 -42t-23 -32.5t-32.5 -21t-37 -7.5q-31 0 -49 20t-18 52z" />
    <glyph glyph-name="k" unicode="k" horiz-adv-x="971" 
d="M1020 836q0 -54 -15.5 -112t-51 -114t-93.5 -107.5t-143 -92.5l153 -410h-112l-140 373q-51 -17 -126.5 -30t-163.5 -19l-60 -324h-102l252 1423h102l-125 -696q25 52 67 107t96 100t117.5 73.5t133.5 28.5q47 0 86 -13t66.5 -38.5t43 -63t15.5 -85.5zM915 819
q0 60 -32 93.5t-90 33.5q-48 0 -96.5 -23.5t-94.5 -64t-87 -93.5t-75 -112.5t-59.5 -121.5t-38.5 -119q142 5 249.5 42t179.5 93.5t108 127t36 144.5z" />
    <glyph glyph-name="l" unicode="l" horiz-adv-x="590" 
d="M520 1421l-198 -1132q-7 -37 -12 -72.5t-5 -58.5q0 -32 7 -52.5t21.5 -32t37 -16t53.5 -4.5q38 0 76 11.5t69 25.5l21 -76q-29 -17 -81 -30t-114 -13q-104 0 -149 44.5t-45 121.5q0 38 5 72.5t11 69.5l201 1142h102z" />
    <glyph glyph-name="m" unicode="m" horiz-adv-x="1716" 
d="M170 0l154 872l10 136h90l-10 -156q36 45 79 79.5t89 58t93.5 35t92.5 11.5q106 0 173.5 -48t90.5 -159q34 52 77 91t91 65t98.5 38.5t98.5 12.5q137 0 205.5 -67.5t68.5 -194.5q0 -23 -2.5 -53.5t-7.5 -56.5l-117 -664h-102l112 639q7 31 10 61t3 58q0 41 -9 76.5
t-30.5 61.5t-57.5 41t-90 15q-66 0 -126 -26t-107.5 -67.5t-79.5 -92.5t-41 -102l-117 -664h-102l113 637q5 29 8.5 60.5t3.5 60.5q0 39 -8 74t-29.5 62t-58 42.5t-93.5 15.5q-68 0 -128.5 -26.5t-108.5 -69t-80 -95.5t-41 -106l-113 -655h-102z" />
    <glyph glyph-name="n" unicode="n" horiz-adv-x="1104" 
d="M166 0l153 872l15 136h94l-10 -158q78 93 175 139.5t198 46.5q136 0 204 -63t68 -187q0 -11 -1 -27t-2.5 -33t-4 -34t-4.5 -30l-119 -662h-103l113 641q6 32 9 64t3 67q0 37 -9 70t-30 57.5t-56 38.5t-87 14q-73 0 -139 -25.5t-117.5 -66t-85.5 -90.5t-43 -100l-119 -670
h-102z" />
    <glyph glyph-name="o" unicode="o" horiz-adv-x="1065" 
d="M535 55q84 0 152 37t119 98.5t85 142t49 167.5q8 42 11 81t3 76q0 65 -12.5 118.5t-41.5 92t-75.5 59.5t-113.5 21q-84 0 -151.5 -32t-118.5 -88t-84.5 -132.5t-49.5 -165.5q-8 -43 -12 -87t-4 -89q0 -59 10.5 -113t37.5 -95.5t74.5 -66t121.5 -24.5zM201 528
q18 105 51 184t75.5 135.5t92.5 93t101.5 57.5t103 29.5t96.5 8.5q37 0 76.5 -6.5t77.5 -22.5t72 -42t60 -65t41 -92t15 -122q0 -35 -3 -80t-11 -90q-27 -152 -79.5 -256t-122 -168.5t-153 -92.5t-172.5 -28q-163 0 -250.5 93t-87.5 278q0 40 3.5 88.5t13.5 97.5z" />
    <glyph glyph-name="p" unicode="p" horiz-adv-x="1075" 
d="M190 -430h-102l248 1411q106 26 191.5 40.5t162.5 14.5q198 0 288.5 -100t90.5 -301q0 -147 -34.5 -269.5t-99 -210t-156 -136t-206.5 -48.5q-44 0 -86 8t-80 21.5t-70 31.5t-56 38zM297 170q21 -21 51.5 -41.5t66.5 -36.5t75 -25.5t77 -9.5q75 0 146.5 31t127.5 100
t90 179t34 268q0 63 -13 120t-45.5 99.5t-87.5 68t-139 25.5q-31 0 -64.5 -2.5t-66.5 -7.5t-64.5 -12.5t-58.5 -16.5z" />
    <glyph glyph-name="q" unicode="q" horiz-adv-x="1075" 
d="M844 -430h-103l99 555l-6 2q-35 -38 -71 -67t-77.5 -48.5t-89 -30t-104.5 -10.5q-152 0 -229 95.5t-77 281.5q0 160 39 287.5t113 216.5t180.5 136.5t241.5 47.5q71 0 155 -13.5t175 -53.5zM977 911q-43 19 -96 29t-115 10q-60 0 -118 -12.5t-111 -40.5t-98.5 -74
t-78.5 -114t-52 -158.5t-19 -208.5q0 -51 10 -102t35.5 -92t70 -67t113.5 -26q74 0 136 25t107.5 62t73.5 78.5t33 74.5z" />
    <glyph glyph-name="r" unicode="r" horiz-adv-x="682" 
d="M268 0h-102l158 889l10 119h96l-12 -156q17 38 44 71.5t63 58.5t80 39.5t95 14.5q59 0 100 -13.5t62 -29.5l-49 -78q-26 16 -57.5 24.5t-69.5 8.5q-54 0 -102.5 -24t-88.5 -63.5t-68.5 -92t-41.5 -109.5z" />
    <glyph glyph-name="s" unicode="s" horiz-adv-x="809" 
d="M143 143q19 -14 45 -29.5t59 -28.5t73 -21.5t88 -8.5q56 0 105.5 12.5t87 39t59.5 67.5t22 98q0 43 -14.5 73.5t-40 52.5t-59 37.5t-70.5 29.5q-49 18 -99 37t-90 48.5t-65 73.5t-25 113q0 74 29 130t78 93.5t114.5 56.5t137.5 19q54 0 102 -12t87.5 -31.5t70 -44.5
t49.5 -51l-68 -57q-38 48 -100.5 80t-149.5 32q-46 0 -91 -11t-81 -35t-58 -62t-22 -92q0 -47 19 -79t50.5 -55t72 -40t82.5 -33q45 -17 89 -36t78 -47t55 -68.5t21 -98.5q0 -80 -26 -140.5t-75 -101.5t-118 -61.5t-155 -20.5q-59 0 -111.5 10t-94.5 25t-72 32t-44 30z" />
    <glyph glyph-name="t" unicode="t" horiz-adv-x="657" 
d="M520 1423l-74 -415h304l-15 -82h-303l-121 -682q-3 -20 -5.5 -43.5t-2.5 -38.5q0 -35 10 -56t28 -32t43.5 -15t57.5 -4q25 0 50.5 6t48 14.5t42 18.5t33.5 19l35 -74q-24 -16 -53 -28.5t-60.5 -21.5t-62 -13.5t-57.5 -4.5q-61 0 -102.5 12.5t-67 34.5t-36.5 51.5
t-11 63.5q0 28 2 56.5t8 62.5l207 1171h102z" />
    <glyph glyph-name="u" unicode="u" horiz-adv-x="1102" 
d="M1110 1008l-154 -873l-14 -135h-94l10 152q-37 -50 -80 -84.5t-89.5 -56t-95.5 -31t-97 -9.5h-11q-272 0 -272 244q0 23 2.5 56t7.5 59l121 678h102l-114 -650q-6 -31 -9.5 -68t-3.5 -63q0 -42 9 -74t32 -54t63.5 -33t102.5 -11q61 0 122 25t111.5 66.5t86 94.5t45.5 109
l117 658h102z" />
    <glyph glyph-name="v" unicode="v" horiz-adv-x="1044" 
d="M1016 1008q2 -23 4.5 -52.5t4 -61t2.5 -64t1 -62.5q0 -167 -34 -312.5t-104 -253t-177 -169.5t-252 -62q-128 0 -198 57.5t-70 186.5q0 25 2.5 58.5t7.5 62.5l119 672h102l-111 -623q-8 -40 -13 -79t-5 -75q0 -37 8 -68.5t28.5 -55t56 -37t91.5 -13.5q77 0 139.5 27.5
t112 76t86 114t60.5 142t35.5 160.5t11.5 168q0 78 -5 146.5t-8 116.5h105z" />
    <glyph glyph-name="w" unicode="w" horiz-adv-x="1626" 
d="M1608 1008q6 -54 12 -124.5t6 -140.5q0 -92 -13 -185t-40 -178.5t-69.5 -160.5t-102.5 -130t-137 -86.5t-174 -31.5q-117 0 -179.5 57.5t-60.5 157.5q-38 -63 -83 -104.5t-94.5 -66t-101 -34.5t-100.5 -10q-126 0 -195 58.5t-69 181.5q0 22 1.5 46t6.5 50l125 701h102
l-106 -602q-8 -45 -14.5 -88.5t-6.5 -84.5q0 -38 8 -70.5t28 -56.5t55 -37.5t88 -13.5q67 0 126 25t105 65.5t76.5 93t40.5 107.5l116 662h103l-109 -615q-8 -42 -13 -82t-5 -78t8 -70.5t27.5 -56.5t53.5 -37.5t85 -13.5q69 0 127 26.5t104.5 73.5t81.5 111.5t58.5 139
t35 156.5t11.5 165q0 81 -6 153t-13 128h101z" />
    <glyph glyph-name="x" unicode="x" horiz-adv-x="870" 
d="M1006 1008l-414 -476l258 -532h-98l-226 459l-391 -459h-115l457 535l-231 473h104l193 -408l350 408h113z" />
    <glyph glyph-name="y" unicode="y" horiz-adv-x="1090" 
d="M924 -16q-14 -76 -35.5 -151t-52.5 -132q-31 -58 -69.5 -103.5t-88 -77t-111 -48.5t-137.5 -17q-131 0 -195.5 59.5t-64.5 159.5q0 78 27 136t70.5 103t98 79.5t109.5 64.5q-51 4 -96 18t-79.5 42t-54.5 73t-20 111q0 22 1.5 45t6.5 49l109 613h102l-100 -572
q-6 -35 -10 -67.5t-4 -61.5q0 -38 10 -70t35.5 -55t70 -36t113.5 -13q58 0 114.5 20t103 56.5t79 86.5t43.5 110l107 602h98zM276 -309q0 -78 44.5 -115t128.5 -37q81 0 142 32.5t106 90t74.5 137t47.5 174.5l41 215q-31 -31 -61.5 -53t-64.5 -40.5t-73.5 -36.5t-87.5 -40
q-69 -32 -124 -66t-93.5 -73t-59 -85t-20.5 -103z" />
    <glyph glyph-name="z" unicode="z" horiz-adv-x="784" 
d="M86 -268q0 -41 9.5 -75.5t31 -60t55.5 -39.5t82 -14q83 0 147 32t108 85.5t66.5 124.5t22.5 149q0 88 -29.5 146t-91.5 100q-114 -48 -191 -103t-123.5 -113t-66.5 -116.5t-20 -115.5zM883 905l-572 -514l135 -72q73 -38 123.5 -78.5t82 -86t45.5 -96.5t14 -111
q0 -101 -29.5 -190t-87 -156t-142.5 -105.5t-196 -38.5q-71 0 -123 19.5t-86 53.5t-50.5 81t-16.5 102q0 85 30 160t85 139.5t133 119.5t175 101q-49 23 -97 48t-97 51l16 100l545 490h-557l16 86h672z" />
    <glyph glyph-name="braceleft" unicode="{" horiz-adv-x="575" 
d="M326 575q51 -20 71.5 -57.5t20.5 -99.5q0 -36 -8 -84.5t-20 -102.5t-26.5 -109.5t-26.5 -103.5t-20 -86t-8 -57q0 -46 19 -71t67 -25q17 0 39.5 3t46.5 9l4 -82q-24 -6 -60 -11t-67 -5q-78 0 -114.5 39.5t-36.5 120.5q0 38 5.5 66t10.5 48q15 60 30.5 120.5t29 118
t22 111.5t8.5 101q0 28 -5 48.5t-15.5 35.5t-28.5 25t-43 18l10 63q43 12 70.5 29t45.5 46.5t29.5 73.5t22.5 109q7 39 13 103t14 135q3 34 8 69.5t10 63.5q17 102 72.5 151.5t136.5 49.5q41 0 74.5 -6.5t54.5 -14.5l-28 -78q-22 7 -43.5 10t-38.5 3q-34 0 -55.5 -8.5
t-36 -26.5t-22.5 -46t-15 -67q-7 -36 -14 -89t-13 -107.5t-11 -103t-9 -75.5q-8 -54 -19.5 -94.5t-31 -71.5t-48.5 -52t-71 -36z" />
    <glyph glyph-name="bar" unicode="|" horiz-adv-x="393" 
d="M414 1530h106l-303 -1710h-106z" />
    <glyph glyph-name="braceright" unicode="}" horiz-adv-x="575" 
d="M455 580q-51 20 -70.5 56.5t-19.5 96.5q0 37 7.5 85.5t19 100.5t24.5 105t24.5 99.5t19 83t7.5 57.5q0 46 -19.5 67t-68.5 21q-17 0 -39 -3t-47 -10l-4 80q25 6 61.5 12.5t67.5 6.5q75 0 113 -34t38 -112q0 -40 -5 -70t-11 -53q-12 -47 -27.5 -104t-29 -114t-22.5 -109.5
t-9 -89.5q0 -32 5 -55.5t15.5 -40.5t28 -28.5t43.5 -19.5l-10 -63q-43 -12 -72 -31t-47.5 -49t-29 -73t-17.5 -103q-4 -35 -9 -76.5t-10.5 -84t-11.5 -84t-10 -77.5q-2 -14 -4 -32.5t-4 -30.5q-9 -59 -26.5 -99t-45 -65t-64.5 -36t-85 -11q-15 0 -32.5 2t-33.5 5t-29.5 7
t-21.5 8l26 80q22 -6 45.5 -11t51.5 -5t47.5 10t33 30.5t22.5 50.5t16 69q6 37 12.5 92t12.5 112.5t12 109t12 83.5q10 57 20.5 97.5t28.5 69.5t47 47t74 30z" />
    <glyph glyph-name="asciitilde" unicode="~" horiz-adv-x="1149" 
d="M840 457q-54 0 -97 25.5t-81.5 56.5t-75 56.5t-76.5 25.5q-42 0 -83 -34.5t-81 -92.5l-67 43q32 50 63 82.5t61.5 51.5t60 26.5t58.5 7.5q39 0 71.5 -12t60 -30.5t52 -39.5t48 -39.5t47.5 -30.5t51 -12q40 0 76.5 27t75.5 94l71 -37q-35 -61 -68.5 -94.5t-64.5 -50
t-57 -20t-45 -3.5z" />
    <glyph glyph-name="uni00A0" unicode="&#xa0;" horiz-adv-x="397" 
 />
    <glyph glyph-name="exclamdown" unicode="&#xa1;" horiz-adv-x="535" 
d="M286.083 -359.75q-2 -11.998 -6.49902 -22.4961t-12.498 -18.4961q-7.99805 -7.99902 -20.9961 -12.998t-32.9941 -4.99902q-21.9961 0 -34.4932 4.49902q-12.498 4.49902 -17.4971 12.998q-4.99902 8.49805 -4.49902 19.4961t2.49902 23.9951l49.9912 276.95
l158.971 746.862h69.9873l-101.981 -746.862zM542.036 947.011q0 -24.9961 -8.99902 -44.9922q-8.99805 -19.9961 -23.4951 -33.9932q-14.498 -13.998 -32.9941 -21.9961q-18.4971 -7.99902 -38.4932 -7.99902q-21.9961 0 -39.4932 7.99902
q-17.4961 7.99805 -29.4941 20.4961q-11.998 12.4971 -18.4971 28.9941q-6.49805 16.4971 -6.49805 34.4941q0 23.9951 8.49805 43.4922q8.49805 19.4961 23.4961 33.9932q14.9971 14.498 34.4932 21.9961q19.4971 7.49902 41.4922 7.49902q38.9932 0 64.4883 -23.9961
q25.4961 -23.9951 25.4961 -65.9873z" />
    <glyph glyph-name="cent" unicode="&#xa2;" horiz-adv-x="1096" 
d="M526 -123l43 240q-140 28 -209 132.5t-69 272.5q0 171 41.5 290.5t108.5 197t150 117t167 49.5l39 227h102l-41 -229q39 -3 78.5 -14.5t75.5 -33t67.5 -52.5t55.5 -73l-80 -51q-41 68 -94 99t-119 36l-156 -888q62 3 128.5 25.5t131.5 70.5l47 -70q-24 -20 -59 -39.5
t-77 -35.5t-90 -27t-97 -12l-41 -232h-103zM395 528q0 -60 10.5 -114t33.5 -96.5t59.5 -71.5t87.5 -41l155 878q-74 -13 -137 -53.5t-109.5 -109.5t-73 -167t-26.5 -225z" />
    <glyph glyph-name="sterling" unicode="&#xa3;" horiz-adv-x="1055" 
d="M129 426h248l223 575q45 115 94.5 183t102.5 104t108.5 47t112.5 11q42 0 80 -8t70 -20.5t58.5 -27.5t45.5 -28l-55 -74q-35 25 -85.5 47t-119.5 22q-63 0 -109.5 -17t-83.5 -52.5t-67 -90t-60 -130.5l-213 -541h389l-16 -86h-403l-103 -256q-21 -51 -43 -92t-48 -74
t-57 -59.5t-69 -48.5v-5q32 8 67.5 13.5t63.5 5.5q50 0 92.5 -8.5t86 -19t93 -19t113.5 -8.5q48 0 106 5t130 19l-27 -88q-69 -12 -125 -16t-98 -4q-73 0 -125.5 8.5t-98 18t-92.5 18t-108 8.5q-21 0 -50.5 -3t-62 -9t-66 -14.5t-61.5 -18.5l17 108q84 40 147 106t107 173
l104 258h-229z" />
    <glyph glyph-name="yen" unicode="&#xa5;" horiz-adv-x="1032" 
d="M174 358l16 91h371l33 190h-371l17 90h319l-231 590h108l221 -584l412 584h117l-428 -590h311l-16 -90h-361l-33 -190h361l-16 -91h-361l-63 -358h-99l64 358h-371z" />
    <glyph glyph-name="brokenbar" unicode="&#xa6;" horiz-adv-x="397" 
d="M414 1530h110l-123 -696h-110zM248 594h110l-137 -774h-110z" />
    <glyph glyph-name="section" unicode="&#xa7;" horiz-adv-x="1100" 
d="M874 -72q0 -73 -26 -135t-76 -107.5t-122 -71.5t-163 -26q-39 0 -84 6.5t-89 18t-83 28t-67 37.5l49 84q18 -14 47.5 -28.5t67 -27t80 -20.5t86.5 -8q73 0 126 21.5t86.5 56t49.5 78t16 88.5q0 56 -21.5 98t-57 75t-81 60.5t-92.5 55.5t-92.5 59t-81 71t-57 92.5
t-21.5 123.5q0 56 13 113t28 106h92q-15 -57 -24.5 -107t-9.5 -106q0 -55 22 -97.5t57.5 -77t81 -63.5t93 -58.5t93 -61t81 -71.5t57.5 -90t22 -116zM877 158l3.5 24.5t5 38t4 41t1.5 35.5q0 78 -21.5 135t-56.5 99.5t-79.5 74.5t-91.5 61t-91.5 59t-79.5 68.5t-56.5 89
t-21.5 120.5q0 54 18.5 114.5t64 111t123 83.5t196.5 33q56 0 105.5 -9t90 -22.5t71 -29t48.5 -28.5l-53 -86q-18 14 -48 29t-67 27t-78 20t-82 8q-75 0 -129 -19.5t-88.5 -52t-50.5 -74.5t-16 -87q0 -60 21 -104.5t55.5 -79.5t78.5 -64.5t89.5 -59.5t89.5 -64.5t78.5 -80
t55.5 -106t21 -141.5q0 -53 -4.5 -91t-13.5 -75z" />
    <glyph glyph-name="dieresis" unicode="&#xa8;" 
d="M494 1290q0 23 9 43t24 34.5t34.5 23t40.5 8.5q32 0 53 -22t21 -56q0 -24 -9 -44t-24.5 -34.5t-35 -22.5t-40.5 -8q-34 0 -53.5 21.5t-19.5 56.5zM838 1290q0 23 9 43t24 34.5t34.5 23t40.5 8.5q32 0 53 -22t21 -56q0 -24 -9 -44t-24.5 -34.5t-35 -22.5t-40.5 -8
q-34 0 -53.5 21.5t-19.5 56.5z" />
    <glyph glyph-name="copyright" unicode="&#xa9;" horiz-adv-x="1665" 
d="M1634 680q0 -103 -24 -196t-68.5 -173t-108.5 -145t-144 -111t-174.5 -71t-199.5 -25q-163 0 -292.5 52.5t-220 146.5t-139 224.5t-48.5 285.5q0 150 51.5 280.5t144.5 227t221.5 152.5t282.5 56q159 0 291 -55.5t227.5 -151.5t148 -224t52.5 -273zM1532 674
q0 133 -46.5 247.5t-129 198t-195 131t-243.5 47.5q-135 0 -245.5 -48.5t-189.5 -133t-122.5 -200t-43.5 -248.5q0 -142 44.5 -257t124.5 -196.5t190 -125.5t242 -44q133 0 245.5 47t194.5 131t128 199.5t46 251.5zM930 352q63 0 113.5 21t95.5 59l53 -65
q-47 -41 -112.5 -71t-149.5 -30q-91 0 -159 29t-113.5 83t-68 130t-22.5 170q0 119 34.5 197.5t87.5 125t115 65.5t118 19q37 0 76.5 -9t77.5 -27.5t72.5 -47t61.5 -67.5l-67 -49q-48 59 -102 86.5t-117 27.5q-56 0 -103 -17.5t-80.5 -55.5t-52 -98.5t-18.5 -147.5
q0 -75 15.5 -135.5t47.5 -103t81 -66t116 -23.5z" />
    <glyph glyph-name="ordfeminine" unicode="&#xaa;" horiz-adv-x="807" 
d="M805 686l-6 -149h-103l2 81h-6q-49 -46 -104 -70t-115 -24q-59 0 -101 21t-69 56.5t-40 83t-13 101.5q0 100 27 184.5t79.5 145.5t130 95t177.5 34q21 0 49 -2.5t59 -7.5t63.5 -13t61.5 -20zM782 1139q-21 9 -58.5 14.5t-80.5 5.5q-71 0 -125 -30.5t-90 -80t-54 -112.5
t-18 -129q0 -44 8.5 -80t27 -62t47 -40.5t67.5 -14.5q42 0 78 13t63 32t44 40.5t20 39.5z" />
    <glyph glyph-name="guillemotleft" unicode="&#xab;" horiz-adv-x="946" 
d="M332 535l211 -334l-60 -45q-30 34 -67 78t-72.5 89t-65.5 85.5t-45 66.5q-12 22 -17 36t-5 24q0 20 18.5 39.5t42.5 39.5q76 62 171 130.5t192 136.5l43 -62zM672 535l211 -334l-60 -45q-30 34 -67 78t-72.5 89t-65.5 85.5t-45 66.5q-12 22 -17 36t-5 24q0 20 18.5 39.5
t42.5 39.5q76 62 171 130.5t192 136.5l43 -62z" />
    <glyph glyph-name="logicalnot" unicode="&#xac;" horiz-adv-x="1096" 
d="M1012 721h-776l16 94h878l-65 -371h-102z" />
    <glyph glyph-name="uni00AD" unicode="&#xad;" horiz-adv-x="659" 
d="M227 664h435l-17 -99h-434z" />
    <glyph glyph-name="registered" unicode="&#xae;" horiz-adv-x="948" 
d="M831 793h-73l-68 145q-8 17 -15 23t-20 6h-92v-174h-61v432h162q61 0 97 -30t36 -83q0 -48 -22 -76t-50 -41q11 -5 17.5 -13.5t9.5 -16.5zM655 1024q39 0 56.5 23t17.5 57q0 21 -7 34.5t-20 20.5t-30 9.5t-37 2.5h-72v-147h92zM1036 1008q0 -85 -29.5 -155.5t-82 -121.5
t-125.5 -79.5t-160 -28.5q-90 0 -161.5 28.5t-122 79t-77 120.5t-26.5 153q0 82 28.5 152t80 121t122.5 80t156 29q87 0 160 -29t125.5 -79.5t82 -119.5t29.5 -150zM961 1004q0 70 -24 128.5t-67 101t-102 66t-129 23.5q-71 0 -128 -23.5t-98 -66t-63 -101t-22 -128.5
q0 -71 23.5 -130t64.5 -101t98 -65.5t125 -23.5q70 0 129.5 23t102 65t66.5 101t24 131z" />
    <glyph glyph-name="macron" unicode="&#xaf;" 
d="M498 1366h497l-18 -102h-498z" />
    <glyph glyph-name="degree" unicode="&#xb0;" horiz-adv-x="610" 
d="M305 1176q0 53 18.5 99.5t51.5 81.5t79.5 55t102.5 20q44 0 77 -13.5t55 -37t33 -55t11 -66.5q0 -53 -18 -99.5t-51.5 -81t-81 -54t-105.5 -19.5q-43 0 -75.5 12.5t-54 35t-32 54t-10.5 68.5zM399 1186q0 -45 23.5 -73t73.5 -28q35 0 62 12.5t45 34t27 51t9 64.5
q0 47 -22.5 76t-73.5 29q-39 0 -66 -13.5t-44.5 -36.5t-25.5 -53t-8 -63z" />
    <glyph glyph-name="plusminus" unicode="&#xb1;" horiz-adv-x="1096" 
d="M674 1057h102l-61 -350h372l-16 -95h-373l-67 -374h373l-17 -95h-829l16 95h354l68 374h-354l16 95h354z" />
    <glyph glyph-name="uni00B2" unicode="&#xb2;" horiz-adv-x="657" 
d="M309 1417q33 19 66 36t69 29.5t75.5 19.5t84.5 7q51 0 87.5 -15t60 -39t34.5 -54t11 -60q0 -35 -6.5 -65.5t-22 -60.5t-42.5 -61.5t-69 -70.5l-319 -299h397l-16 -86h-516l14 82l324 307q38 37 67.5 67t49.5 57.5t30 54.5t10 59q0 50 -29.5 74t-86.5 24q-54 0 -114.5 -20
t-125.5 -57z" />
    <glyph glyph-name="uni00B3" unicode="&#xb3;" horiz-adv-x="664" 
d="M317 1440q56 25 126 47t145 22q48 0 84.5 -13t61 -35.5t36.5 -53t12 -66.5q0 -61 -30 -110t-99 -92q28 -56 44 -109t16 -104q0 -46 -15 -89t-49.5 -76t-90 -53t-136.5 -20q-35 0 -70 5t-67 13t-58 17.5t-41 19.5l41 78q35 -17 83.5 -33t113.5 -16q91 0 142.5 40t51.5 118
q0 40 -14.5 82.5t-36.5 89.5q-55 -20 -103.5 -33.5t-74.5 -19.5l-16 75q38 10 67 17.5t47 13.5q42 14 78 28.5t63 33.5t42.5 45t15.5 63q0 29 -9 48.5t-25 31.5t-38 17t-47 5q-21 0 -47 -5t-55.5 -13t-60 -18.5t-58.5 -22.5z" />
    <glyph glyph-name="acute" unicode="&#xb4;" 
d="M801 1534q17 -5 33.5 -11t29.5 -14.5t21 -19.5t8 -25q0 -20 -16.5 -42t-36.5 -42q-35 -37 -96 -89t-158 -134l-43 41z" />
    <glyph glyph-name="mu" unicode="&#xb5;" horiz-adv-x="1210" 
d="M1034 135q-8 -44 5 -58t38 -14t49 8.5t64 28.5l22 -73q-42 -25 -87 -37.5t-83 -12.5q-48 0 -78 24.5t-30 80.5q0 9 1.5 22t4 27t5.5 27t5 22q-71 -99 -163.5 -154t-204.5 -55q-56 0 -99.5 11.5t-76.5 31t-55.5 45t-35.5 54.5l-98 -555h-100l256 1450h100l-108 -617
q-5 -23 -7 -45.5t-2 -44.5q0 -53 13.5 -97t42.5 -76t74 -49.5t108 -17.5q72 0 136.5 28.5t115.5 78t86 117.5t49 147l102 576h105z" />
    <glyph glyph-name="paragraph" unicode="&#xb6;" horiz-adv-x="967" 
d="M905 1276h-157l-146 -823q-68 4 -124.5 29.5t-97.5 71t-64 111.5t-23 152q0 116 33.5 215.5t99.5 173t163.5 115t225.5 41.5h207l-207 -1180q-15 -88 -33 -159t-44 -129t-62.5 -103.5t-89 -82t-124 -66t-167.5 -54.5l-21 84q112 31 186.5 69t122 87.5t73 113.5t40.5 148z
" />
    <glyph glyph-name="periodcentered" unicode="&#xb7;" horiz-adv-x="616" 
d="M313 610q0 28 10.5 51t27.5 39.5t38.5 25.5t44.5 9q44 0 67 -24t23 -62q0 -26 -9.5 -48.5t-25.5 -39.5t-38.5 -27t-47.5 -10q-43 0 -66.5 23t-23.5 63z" />
    <glyph glyph-name="cedilla" unicode="&#xb8;" 
d="M520 6l-80 -164q31 -2 58 -10.5t47.5 -25t32.5 -41t12 -56.5q0 -47 -18.5 -81t-49.5 -56t-71.5 -32.5t-83.5 -10.5q-42 0 -85.5 9t-74.5 28l35 69q21 -9 56.5 -17.5t70.5 -8.5q34 0 57.5 7.5t38 20.5t21 29t6.5 33q0 22 -8.5 38t-28 26t-51 14.5t-78.5 3.5l110 225h84z
" />
    <glyph glyph-name="uni00B9" unicode="&#xb9;" horiz-adv-x="645" 
d="M455 784l106 605l-209 -93l-24 72l256 129h108l-28 -108l-107 -605h158l-17 -86h-422l17 86h162z" />
    <glyph glyph-name="ordmasculine" unicode="&#xba;" horiz-adv-x="809" 
d="M512 612q60 0 108 27.5t81 75t51 111.5t18 137q0 45 -8.5 82t-27.5 64t-50.5 41.5t-77.5 14.5q-62 0 -108.5 -28.5t-78 -76t-47.5 -109t-16 -126.5q0 -43 8 -81.5t26 -68t48 -46.5t74 -17zM248 801q0 89 16.5 157.5t44.5 118.5t65 83.5t79 53.5t85.5 28.5t84.5 8.5
q54 0 100.5 -16t80.5 -49t53.5 -84t19.5 -121q0 -100 -24 -184t-71 -144.5t-117 -94.5t-161 -34q-65 0 -113.5 21t-80 58t-47 88t-15.5 110z" />
    <glyph glyph-name="guillemotright" unicode="&#xbb;" horiz-adv-x="946" 
d="M229 834l54 47q72 -68 143 -136.5t125 -130.5q14 -17 24.5 -33.5t10.5 -33.5q0 -11 -10.5 -28.5t-34.5 -43.5q-25 -26 -69 -66.5t-96 -85.5t-105 -89t-95 -78l-45 53l336 340zM569 834l54 47q72 -68 143 -136.5t125 -130.5q14 -17 24.5 -33.5t10.5 -33.5
q0 -11 -10.5 -28.5t-34.5 -43.5q-25 -26 -69 -66.5t-96 -85.5t-105 -89t-95 -78l-45 53l336 340z" />
    <glyph glyph-name="onequarter" unicode="&#xbc;" horiz-adv-x="1638" 
d="M410 622l106 605l-209 -93l-24 72l256 129h108l-28 -108l-107 -605h158l-17 -86h-422l17 86h162zM486 45l825 1286l88 -43l-829 -1288zM1547 512l-43 -241h149l-14 -84h-148l-33 -185h-102l33 185h-348l14 86l346 540l80 -34l-322 -508h244l17 90l63 151h64z" />
    <glyph glyph-name="onehalf" unicode="&#xbd;" horiz-adv-x="1638" 
d="M410 622l106 605l-209 -93l-24 72l256 129h108l-28 -108l-107 -605h158l-17 -86h-422l17 86h162zM486 45l825 1286l88 -43l-829 -1288zM1165 721q33 19 66 36t69 29.5t75.5 19.5t84.5 7q51 0 87.5 -15t60 -39t34.5 -54t11 -60q0 -35 -6.5 -65.5t-22 -60.5t-42.5 -61.5
t-69 -70.5l-319 -299h397l-16 -86h-516l14 82l324 307q38 37 67.5 67t49.5 57.5t30 54.5t10 59q0 50 -29.5 74t-86.5 24q-54 0 -114.5 -20t-125.5 -57z" />
    <glyph glyph-name="threequarters" unicode="&#xbe;" horiz-adv-x="1638" 
d="M305 1278q56 25 126 47t145 22q48 0 84.5 -13t61 -35.5t36.5 -53t12 -66.5q0 -61 -30 -110t-99 -92q28 -56 44 -109t16 -104q0 -46 -15 -89t-49.5 -76t-90 -53t-136.5 -20q-35 0 -70 5t-67 13t-58 17.5t-41 19.5l41 78q35 -17 83.5 -33t113.5 -16q91 0 142.5 40t51.5 118
q0 40 -14.5 82.5t-36.5 89.5q-55 -20 -103.5 -33.5t-74.5 -19.5l-16 75q38 10 67 17.5t47 13.5q42 14 78 28.5t63 33.5t42.5 45t15.5 63q0 29 -9 48.5t-25 31.5t-38 17t-47 5q-21 0 -47 -5t-55.5 -13t-60 -18.5t-58.5 -22.5zM504 45l825 1286l88 -43l-829 -1288zM1547 512
l-43 -241h149l-14 -84h-148l-33 -185h-102l33 185h-348l14 86l346 540l80 -34l-322 -508h244l17 90l63 151h64z" />
    <glyph glyph-name="questiondown" unicode="&#xbf;" horiz-adv-x="721" 
d="M77.1523 -177.783q0 77.9854 22.9961 135.975t61.9883 103.981q38.9932 45.9912 89.4844 82.9844q50.4902 36.9932 104.48 72.9863q56.9893 37.9932 92.4834 67.4883q35.4932 29.4941 56.9893 59.4893q21.4961 29.9941 32.4941 62.9883t18.9961 77.9854l27.9951 165.97
h89.9834q-5.99902 -49.9912 -10.998 -96.4824t-12.9971 -100.481q-8.99902 -61.9883 -27.9951 -103.981q-18.9961 -41.9922 -48.4912 -74.4863q-29.4941 -32.4941 -70.4873 -61.4883q-40.9922 -28.9951 -94.9824 -66.9883q-39.9922 -27.9941 -79.9854 -57.4893
q-39.9922 -29.4941 -71.9863 -64.4883q-31.9941 -34.9932 -51.4912 -78.4854q-19.4961 -43.4922 -19.4961 -100.481q0 -47.9912 15.4971 -81.4854t42.9922 -53.9902t64.4883 -29.4941t79.9854 -8.99805q53.9902 0 103.98 8.49805q49.9912 8.49805 89.9844 22.4961
l3.99902 -85.9844q-45.9922 -16.9971 -102.981 -26.9951t-115.979 -9.99805q-70.9873 0 -125.478 17.9971q-54.4893 17.9961 -90.9834 50.4902q-36.4932 32.4941 -55.4893 76.4863q-18.9971 43.9912 -18.9971 95.9824zM757.028 947.011q0 -24.9961 -8.99805 -44.9922
q-8.99902 -19.9961 -23.4961 -33.9932q-14.4971 -13.998 -32.9941 -21.9961q-18.4961 -7.99902 -38.4932 -7.99902q-21.9961 0 -39.4922 7.99902q-17.4971 7.99805 -29.4951 20.4961q-11.9971 12.4971 -18.4961 28.9941t-6.49902 34.4941q0 23.9951 8.49805 43.4922
q8.49902 19.4961 23.4961 33.9932q14.9971 14.498 34.4941 21.9961q19.4961 7.49902 41.4922 7.49902q37.9932 0 63.9883 -23.9961q25.9951 -23.9951 25.9951 -65.9873z" />
    <glyph glyph-name="Agrave" unicode="&#xc0;" horiz-adv-x="1219" 
d="M51 0l725 1362h135l256 -1362h-102l-86 459h-576l-241 -459h-111zM453 551h510l-129 723zM1034 1526l-45 -49q-96 66 -158 111.5t-96 74.5q-12 11 -28.5 28.5t-16.5 39.5q0 15 8 27.5t21.5 22.5t31 19.5t35.5 18.5z" />
    <glyph glyph-name="Aacute" unicode="&#xc1;" horiz-adv-x="1219" 
d="M51 0l725 1362h135l256 -1362h-102l-86 459h-576l-241 -459h-111zM453 551h510l-129 723zM1076 1819q24 -16 44.5 -33.5t20.5 -40.5q0 -15 -6.5 -26t-17 -21t-23 -18t-24.5 -17q-44 -29 -121.5 -74.5t-198.5 -111.5l-29 49z" />
    <glyph glyph-name="Acircumflex" unicode="&#xc2;" horiz-adv-x="1219" 
d="M51 0l725 1362h135l256 -1362h-102l-86 459h-576l-241 -459h-111zM453 551h510l-129 723zM559 1520q84 85 144 139t100 88q35 29 59.5 40t44.5 11t39.5 -10.5t42.5 -38.5q34 -40 77 -99.5t91 -133.5l-49 -35l-213 198l-289 -200z" />
    <glyph glyph-name="Atilde" unicode="&#xc3;" horiz-adv-x="1219" 
d="M51 0l725 1362h135l256 -1362h-102l-86 459h-576l-241 -459h-111zM453 551h510l-129 723zM596 1618q40 28 86 40.5t84 12.5q37 0 68.5 -8t61 -17.5t58.5 -17.5t62 -8q31 0 64 9.5t61 25.5l-2 -103q-34 -15 -65.5 -24.5t-73.5 -9.5q-33 0 -66.5 6.5t-67 15t-65.5 15
t-60 6.5q-38 0 -73.5 -9.5t-75.5 -29.5z" />
    <glyph glyph-name="Adieresis" unicode="&#xc4;" horiz-adv-x="1219" 
d="M51 0l725 1362h135l256 -1362h-102l-86 459h-576l-241 -459h-111zM453 551h510l-129 723zM604 1581q0 23 8.5 43t23 34.5t34 23t41.5 8.5q34 0 53.5 -22t19.5 -56q0 -24 -9 -44t-24 -34.5t-34.5 -22.5t-40.5 -8q-32 0 -52 21.5t-20 56.5zM969 1581q0 23 8.5 43t23 34.5
t34 23t40.5 8.5q34 0 54 -22t20 -56q0 -24 -9 -44t-24.5 -34.5t-35 -22.5t-40.5 -8q-32 0 -51.5 21.5t-19.5 56.5z" />
    <glyph glyph-name="Aring" unicode="&#xc5;" horiz-adv-x="1219" 
d="M694 1475q0 43 15.5 80.5t42.5 65t64.5 43t82.5 15.5q37 0 65.5 -11.5t48 -31t29 -46t9.5 -56.5q0 -69 -37 -121t-99 -74l252 -1339h-102l-86 459h-576l-241 -459h-111l715 1341q-37 19 -54.5 54.5t-17.5 79.5zM453 551h510l-129 723zM786 1483q0 -76 66 -76
q28 0 48.5 9.5t33 26t18.5 38.5t6 47q0 32 -17 53t-54 21q-28 0 -47 -11t-31 -28.5t-17.5 -38.5t-5.5 -41z" />
    <glyph glyph-name="AE" unicode="&#xc6;" horiz-adv-x="1630" 
d="M952 459h-575l-242 -459h-104l725 1362h1036l-14 -88h-871l101 -535h585l-16 -88h-553l106 -563h451l-16 -88h-527zM426 551h510l-129 723z" />
    <glyph glyph-name="Ccedilla" unicode="&#xc7;" horiz-adv-x="1200" 
d="M715 66q100 0 195 37.5t198 117.5l51 -71q-97 -81 -205.5 -123.5t-220.5 -49.5l-65 -135q31 -2 58 -10.5t47 -25t32 -41t12 -56.5q0 -47 -18.5 -81t-49 -56t-71 -32.5t-84.5 -10.5q-42 0 -85.5 9t-74.5 28l35 69q22 -9 57 -17.5t70 -8.5q34 0 57.5 7.5t38 20.5t21 29
t6.5 33q0 22 -8.5 38t-28 26t-51 14.5t-78.5 3.5l96 196q-100 7 -179 43.5t-134 102.5t-84 161.5t-29 221.5q0 164 31 292.5t84.5 226.5t124.5 166.5t151 112t164 63t164 19.5q49 0 102.5 -10.5t106 -35t101 -66.5t87.5 -105l-79 -51q-27 39 -59.5 71.5t-72 56t-88 36
t-106.5 12.5q-134 0 -244.5 -55.5t-190 -157t-123.5 -243.5t-44 -316q0 -107 23 -191.5t70 -143t119.5 -90t170.5 -31.5z" />
    <glyph glyph-name="Egrave" unicode="&#xc8;" horiz-adv-x="987" 
d="M424 1362h723l-14 -88h-621l-94 -535h532l-16 -88h-533l-98 -563h635l-16 -88h-738zM923 1526l-45 -49q-96 66 -158 111.5t-96 74.5q-12 11 -28.5 28.5t-16.5 39.5q0 15 8 27.5t21.5 22.5t31 19.5t35.5 18.5z" />
    <glyph glyph-name="Eacute" unicode="&#xc9;" horiz-adv-x="987" 
d="M424 1362h723l-14 -88h-621l-94 -535h532l-16 -88h-533l-98 -563h635l-16 -88h-738zM1026 1819q24 -16 44.5 -33.5t20.5 -40.5q0 -15 -6.5 -26t-17 -21t-23 -18t-24.5 -17q-44 -29 -121.5 -74.5t-198.5 -111.5l-29 49z" />
    <glyph glyph-name="Ecircumflex" unicode="&#xca;" horiz-adv-x="987" 
d="M424 1362h723l-14 -88h-621l-94 -535h532l-16 -88h-533l-98 -563h635l-16 -88h-738zM514 1520q84 85 144 139t100 88q35 29 59.5 40t44.5 11t39.5 -10.5t42.5 -38.5q34 -40 77 -99.5t91 -133.5l-49 -35l-213 198l-289 -200z" />
    <glyph glyph-name="Edieresis" unicode="&#xcb;" horiz-adv-x="987" 
d="M424 1362h723l-14 -88h-621l-94 -535h532l-16 -88h-533l-98 -563h635l-16 -88h-738zM555 1581q0 23 8.5 43t23 34.5t34 23t41.5 8.5q34 0 53.5 -22t19.5 -56q0 -24 -9 -44t-24 -34.5t-34.5 -22.5t-40.5 -8q-32 0 -52 21.5t-20 56.5zM920 1581q0 23 8.5 43t23 34.5t34 23
t40.5 8.5q34 0 54 -22t20 -56q0 -24 -9 -44t-24.5 -34.5t-35 -22.5t-40.5 -8q-32 0 -51.5 21.5t-19.5 56.5z" />
    <glyph glyph-name="Igrave" unicode="&#xcc;" horiz-adv-x="471" 
d="M184 0l240 1362h102l-239 -1362h-103zM674 1526l-45 -49q-96 66 -158 111.5t-96 74.5q-12 11 -28.5 28.5t-16.5 39.5q0 15 8 27.5t21.5 22.5t31 19.5t35.5 18.5z" />
    <glyph glyph-name="Iacute" unicode="&#xcd;" horiz-adv-x="471" 
d="M184 0l240 1362h102l-239 -1362h-103zM709 1819q24 -16 44.5 -33.5t20.5 -40.5q0 -15 -6.5 -26t-17 -21t-23 -18t-24.5 -17q-44 -29 -121.5 -74.5t-198.5 -111.5l-29 49z" />
    <glyph glyph-name="Icircumflex" unicode="&#xce;" horiz-adv-x="471" 
d="M184 0l240 1362h102l-239 -1362h-103zM213 1520q84 85 144 139t100 88q35 29 59.5 40t44.5 11t39.5 -10.5t42.5 -38.5q34 -40 77 -99.5t91 -133.5l-49 -35l-213 198l-289 -200z" />
    <glyph glyph-name="Idieresis" unicode="&#xcf;" horiz-adv-x="471" 
d="M184 0l240 1362h102l-239 -1362h-103zM245 1581q0 23 8.5 43t23 34.5t34 23t41.5 8.5q34 0 53.5 -22t19.5 -56q0 -24 -9 -44t-24 -34.5t-34.5 -22.5t-40.5 -8q-32 0 -52 21.5t-20 56.5zM610 1581q0 23 8.5 43t23 34.5t34 23t40.5 8.5q34 0 54 -22t20 -56q0 -24 -9 -44
t-24.5 -34.5t-35 -22.5t-40.5 -8q-32 0 -51.5 21.5t-19.5 56.5z" />
    <glyph glyph-name="Eth" unicode="&#xd0;" horiz-adv-x="1327" 
d="M311 639h-145l16 98h146l110 625h398q120 0 215 -32t161 -96t101 -159.5t35 -222.5q0 -150 -28 -271.5t-78 -216t-119.5 -163.5t-151.5 -113.5t-174.5 -66t-188.5 -21.5h-409zM432 737h418l-16 -98h-420l-97 -551h304q139 0 253 52t195 149.5t125.5 237.5t44.5 315
q0 123 -32.5 205.5t-90 133t-136.5 72t-173 21.5h-281z" />
    <glyph glyph-name="Ntilde" unicode="&#xd1;" horiz-adv-x="1372" 
d="M1427 1362l-239 -1362h-135l-545 1253l-221 -1253h-103l240 1362h147l537 -1243l217 1243h102zM702 1618q40 28 86 40.5t84 12.5q37 0 68.5 -8t61 -17.5t58.5 -17.5t62 -8q31 0 64 9.5t61 25.5l-2 -103q-34 -15 -65.5 -24.5t-73.5 -9.5q-33 0 -66.5 6.5t-67 15t-65.5 15
t-60 6.5q-38 0 -73.5 -9.5t-75.5 -29.5z" />
    <glyph glyph-name="Ograve" unicode="&#xd2;" horiz-adv-x="1352" 
d="M1350 672q-29 -177 -90 -308.5t-149 -217.5t-200.5 -128.5t-244.5 -42.5q-106 0 -189 32t-140.5 94.5t-87.5 154.5t-30 213q0 51 4 110t15 119q23 132 63.5 234t93.5 178.5t116.5 129t131.5 85t139 47t140 14.5q95 0 176.5 -29.5t141 -89.5t93 -152t33.5 -216
q0 -49 -2.5 -107t-13.5 -120zM346 694q-9 -52 -13.5 -110t-4.5 -109q0 -87 17.5 -161.5t60 -129.5t114 -86.5t178.5 -31.5q124 0 217.5 52t160 137.5t106.5 194t57 222.5q6 46 12 93.5t6 96.5q0 84 -16 162t-55.5 138t-105.5 96t-165 36q-84 0 -155 -23.5t-129.5 -65
t-105.5 -98.5t-82.5 -123.5t-59.5 -140.5t-37 -149zM1132 1526l-45 -49q-96 66 -158 111.5t-96 74.5q-12 11 -28.5 28.5t-16.5 39.5q0 15 8 27.5t21.5 22.5t31 19.5t35.5 18.5z" />
    <glyph glyph-name="Oacute" unicode="&#xd3;" horiz-adv-x="1352" 
d="M1350 672q-29 -177 -90 -308.5t-149 -217.5t-200.5 -128.5t-244.5 -42.5q-106 0 -189 32t-140.5 94.5t-87.5 154.5t-30 213q0 51 4 110t15 119q23 132 63.5 234t93.5 178.5t116.5 129t131.5 85t139 47t140 14.5q95 0 176.5 -29.5t141 -89.5t93 -152t33.5 -216
q0 -49 -2.5 -107t-13.5 -120zM346 694q-9 -52 -13.5 -110t-4.5 -109q0 -87 17.5 -161.5t60 -129.5t114 -86.5t178.5 -31.5q124 0 217.5 52t160 137.5t106.5 194t57 222.5q6 46 12 93.5t6 96.5q0 84 -16 162t-55.5 138t-105.5 96t-165 36q-84 0 -155 -23.5t-129.5 -65
t-105.5 -98.5t-82.5 -123.5t-59.5 -140.5t-37 -149zM1157 1819q24 -16 44.5 -33.5t20.5 -40.5q0 -15 -6.5 -26t-17 -21t-23 -18t-24.5 -17q-44 -29 -121.5 -74.5t-198.5 -111.5l-29 49z" />
    <glyph glyph-name="Ocircumflex" unicode="&#xd4;" horiz-adv-x="1352" 
d="M1350 672q-29 -177 -90 -308.5t-149 -217.5t-200.5 -128.5t-244.5 -42.5q-106 0 -189 32t-140.5 94.5t-87.5 154.5t-30 213q0 51 4 110t15 119q23 132 63.5 234t93.5 178.5t116.5 129t131.5 85t139 47t140 14.5q95 0 176.5 -29.5t141 -89.5t93 -152t33.5 -216
q0 -49 -2.5 -107t-13.5 -120zM346 694q-9 -52 -13.5 -110t-4.5 -109q0 -87 17.5 -161.5t60 -129.5t114 -86.5t178.5 -31.5q124 0 217.5 52t160 137.5t106.5 194t57 222.5q6 46 12 93.5t6 96.5q0 84 -16 162t-55.5 138t-105.5 96t-165 36q-84 0 -155 -23.5t-129.5 -65
t-105.5 -98.5t-82.5 -123.5t-59.5 -140.5t-37 -149zM655 1520q84 85 144 139t100 88q35 29 59.5 40t44.5 11t39.5 -10.5t42.5 -38.5q34 -40 77 -99.5t91 -133.5l-49 -35l-213 198l-289 -200z" />
    <glyph glyph-name="Otilde" unicode="&#xd5;" horiz-adv-x="1352" 
d="M1350 672q-29 -177 -90 -308.5t-149 -217.5t-200.5 -128.5t-244.5 -42.5q-106 0 -189 32t-140.5 94.5t-87.5 154.5t-30 213q0 51 4 110t15 119q23 132 63.5 234t93.5 178.5t116.5 129t131.5 85t139 47t140 14.5q95 0 176.5 -29.5t141 -89.5t93 -152t33.5 -216
q0 -49 -2.5 -107t-13.5 -120zM346 694q-9 -52 -13.5 -110t-4.5 -109q0 -87 17.5 -161.5t60 -129.5t114 -86.5t178.5 -31.5q124 0 217.5 52t160 137.5t106.5 194t57 222.5q6 46 12 93.5t6 96.5q0 84 -16 162t-55.5 138t-105.5 96t-165 36q-84 0 -155 -23.5t-129.5 -65
t-105.5 -98.5t-82.5 -123.5t-59.5 -140.5t-37 -149zM707 1618q40 28 86 40.5t84 12.5q37 0 68.5 -8t61 -17.5t58.5 -17.5t62 -8q31 0 64 9.5t61 25.5l-2 -103q-34 -15 -65.5 -24.5t-73.5 -9.5q-33 0 -66.5 6.5t-67 15t-65.5 15t-60 6.5q-38 0 -73.5 -9.5t-75.5 -29.5z" />
    <glyph glyph-name="Odieresis" unicode="&#xd6;" horiz-adv-x="1352" 
d="M1350 672q-29 -177 -90 -308.5t-149 -217.5t-200.5 -128.5t-244.5 -42.5q-106 0 -189 32t-140.5 94.5t-87.5 154.5t-30 213q0 51 4 110t15 119q23 132 63.5 234t93.5 178.5t116.5 129t131.5 85t139 47t140 14.5q95 0 176.5 -29.5t141 -89.5t93 -152t33.5 -216
q0 -49 -2.5 -107t-13.5 -120zM346 694q-9 -52 -13.5 -110t-4.5 -109q0 -87 17.5 -161.5t60 -129.5t114 -86.5t178.5 -31.5q124 0 217.5 52t160 137.5t106.5 194t57 222.5q6 46 12 93.5t6 96.5q0 84 -16 162t-55.5 138t-105.5 96t-165 36q-84 0 -155 -23.5t-129.5 -65
t-105.5 -98.5t-82.5 -123.5t-59.5 -140.5t-37 -149zM700 1581q0 23 8.5 43t23 34.5t34 23t41.5 8.5q34 0 53.5 -22t19.5 -56q0 -24 -9 -44t-24 -34.5t-34.5 -22.5t-40.5 -8q-32 0 -52 21.5t-20 56.5zM1065 1581q0 23 8.5 43t23 34.5t34 23t40.5 8.5q34 0 54 -22t20 -56
q0 -24 -9 -44t-24.5 -34.5t-35 -22.5t-40.5 -8q-32 0 -51.5 21.5t-19.5 56.5z" />
    <glyph glyph-name="multiply" unicode="&#xd7;" horiz-adv-x="1096" 
d="M375 920l84 69l215 -264l315 268l62 -75l-316 -269l211 -254l-82 -69l-209 256l-311 -265l-61 76l311 264z" />
    <glyph glyph-name="Oslash" unicode="&#xd8;" horiz-adv-x="1352" 
d="M1350 672q-29 -177 -90 -308.5t-149 -217.5t-200.5 -128.5t-244.5 -42.5q-73 0 -135 15.5t-111 44.5l-135 -203l-82 41l143 217q-62 62 -94.5 157t-32.5 222q0 51 4 110t15 119q23 132 63.5 234t93.5 178.5t116.5 129t131.5 85t139 47t140 14.5t130 -15.5t113 -47.5
l123 186l86 -39l-135 -202q59 -62 93 -153t34 -216q0 -49 -2.5 -107t-13.5 -120zM1257 862q0 88 -18 169t-61 143l-703 -1055q42 -26 96.5 -39.5t126.5 -13.5q124 0 217.5 52t160 137.5t106.5 194t57 222.5q6 46 12 93.5t6 96.5zM346 694q-9 -52 -13.5 -110t-4.5 -109
q0 -88 17.5 -163.5t62.5 -131.5l702 1059q-37 26 -85 40.5t-110 14.5q-84 0 -155 -23.5t-129.5 -65t-105.5 -98.5t-82.5 -123.5t-59.5 -140.5t-37 -149z" />
    <glyph glyph-name="Ugrave" unicode="&#xd9;" horiz-adv-x="1288" 
d="M516 1362l-168 -952q-5 -28 -7.5 -53t-2.5 -48q0 -70 22.5 -117t64.5 -75.5t102 -41t135 -12.5q87 0 157 18t123 58t88 104t51 156l170 963h103l-174 -989q-19 -106 -64 -181.5t-113 -123.5t-156.5 -70.5t-193.5 -22.5q-100 0 -177.5 18t-131 57t-81 99.5t-27.5 145.5
q0 26 2 55t8 60l168 952h102zM1071 1526l-45 -49q-96 66 -158 111.5t-96 74.5q-12 11 -28.5 28.5t-16.5 39.5q0 15 8 27.5t21.5 22.5t31 19.5t35.5 18.5z" />
    <glyph glyph-name="Uacute" unicode="&#xda;" horiz-adv-x="1288" 
d="M516 1362l-168 -952q-5 -28 -7.5 -53t-2.5 -48q0 -70 22.5 -117t64.5 -75.5t102 -41t135 -12.5q87 0 157 18t123 58t88 104t51 156l170 963h103l-174 -989q-19 -106 -64 -181.5t-113 -123.5t-156.5 -70.5t-193.5 -22.5q-100 0 -177.5 18t-131 57t-81 99.5t-27.5 145.5
q0 26 2 55t8 60l168 952h102zM1139 1819q24 -16 44.5 -33.5t20.5 -40.5q0 -15 -6.5 -26t-17 -21t-23 -18t-24.5 -17q-44 -29 -121.5 -74.5t-198.5 -111.5l-29 49z" />
    <glyph glyph-name="Ucircumflex" unicode="&#xdb;" horiz-adv-x="1288" 
d="M516 1362l-168 -952q-5 -28 -7.5 -53t-2.5 -48q0 -70 22.5 -117t64.5 -75.5t102 -41t135 -12.5q87 0 157 18t123 58t88 104t51 156l170 963h103l-174 -989q-19 -106 -64 -181.5t-113 -123.5t-156.5 -70.5t-193.5 -22.5q-100 0 -177.5 18t-131 57t-81 99.5t-27.5 145.5
q0 26 2 55t8 60l168 952h102zM604 1520q84 85 144 139t100 88q35 29 59.5 40t44.5 11t39.5 -10.5t42.5 -38.5q34 -40 77 -99.5t91 -133.5l-49 -35l-213 198l-289 -200z" />
    <glyph glyph-name="Udieresis" unicode="&#xdc;" horiz-adv-x="1288" 
d="M516 1362l-168 -952q-5 -28 -7.5 -53t-2.5 -48q0 -70 22.5 -117t64.5 -75.5t102 -41t135 -12.5q87 0 157 18t123 58t88 104t51 156l170 963h103l-174 -989q-19 -106 -64 -181.5t-113 -123.5t-156.5 -70.5t-193.5 -22.5q-100 0 -177.5 18t-131 57t-81 99.5t-27.5 145.5
q0 26 2 55t8 60l168 952h102zM649 1581q0 23 8.5 43t23 34.5t34 23t41.5 8.5q34 0 53.5 -22t19.5 -56q0 -24 -9 -44t-24 -34.5t-34.5 -22.5t-40.5 -8q-32 0 -52 21.5t-20 56.5zM1014 1581q0 23 8.5 43t23 34.5t34 23t40.5 8.5q34 0 54 -22t20 -56q0 -24 -9 -44t-24.5 -34.5
t-35 -22.5t-40.5 -8q-32 0 -51.5 21.5t-19.5 56.5z" />
    <glyph glyph-name="Yacute" unicode="&#xdd;" horiz-adv-x="1030" 
d="M1229 1362l-588 -846l-90 -516h-102l90 516l-299 846h112l254 -733l500 733h123zM1043 1819q24 -16 44.5 -33.5t20.5 -40.5q0 -15 -6.5 -26t-17 -21t-23 -18t-24.5 -17q-44 -29 -121.5 -74.5t-198.5 -111.5l-29 49z" />
    <glyph glyph-name="Thorn" unicode="&#xde;" horiz-adv-x="1159" 
d="M283 0h-103l240 1362h102l-39 -221h303q91 0 164.5 -22t126 -65.5t81 -108t28.5 -150.5q0 -125 -42.5 -218.5t-118 -156t-179.5 -94t-228 -31.5h-284zM594 383q104 0 192.5 21t153 68.5t101 125t36.5 190.5q0 88 -31 140t-83.5 80t-122 36.5t-146.5 8.5h-225l-119 -670
h244z" />
    <glyph glyph-name="germandbls" unicode="&#xdf;" horiz-adv-x="1116" 
d="M729 -29q-38 0 -82.5 7.5t-87.5 20.5t-80 31t-61 40l55 77q21 -18 50 -34t62.5 -28.5t70.5 -20t75 -7.5q51 0 98.5 14.5t84 44.5t58 75.5t21.5 107.5q0 55 -22 94.5t-55.5 71t-72 58.5t-72 56t-55.5 63.5t-22 82.5q0 54 27.5 96.5t68.5 79t89.5 69.5t89.5 68t68.5 74.5
t27.5 89.5q0 34 -16 62t-48 48.5t-80.5 32t-113.5 11.5q-142 0 -233 -68.5t-117 -216.5l-264 -1501h-103l262 1485q15 87 47.5 159t88.5 123t138.5 79t198.5 28q92 0 157.5 -19t107 -50t60.5 -71t19 -83q0 -64 -27.5 -114.5t-69 -92.5t-89.5 -76.5t-89.5 -66t-69 -61.5
t-27.5 -62q0 -35 22 -63t55.5 -56t72 -57.5t72 -66t55.5 -83.5t22 -109q0 -90 -31 -155t-82 -106.5t-117 -61t-137 -19.5z" />
    <glyph glyph-name="agrave" unicode="&#xe0;" horiz-adv-x="1092" 
d="M958 164l-14 -164h-98l12 129l-6 2q-27 -31 -60 -59.5t-74.5 -51t-92 -36t-111.5 -13.5q-67 0 -115 13q-58 15 -100 47.5t-69 79t-39.5 104t-12.5 121.5q0 153 38.5 281.5t114 221.5t186.5 145t255 52q31 0 70.5 -3t83 -10t89 -18.5t87.5 -27.5zM987 909q-28 16 -89 27.5
t-138 11.5q-96 0 -168.5 -27.5t-126 -74t-89 -107.5t-56.5 -127.5t-30 -135.5t-9 -130q0 -54 11.5 -106.5t40 -93.5t76 -66t119.5 -25q76 0 138 23t107.5 61t74 85.5t37.5 97.5zM928 1196l-55 -35q-73 90 -119.5 148.5t-69.5 95.5q-11 17 -18.5 35t-7.5 35q0 18 9.5 30.5
t25 21.5t36 14.5t41.5 10.5z" />
    <glyph glyph-name="aacute" unicode="&#xe1;" horiz-adv-x="1092" 
d="M958 164l-14 -164h-98l12 129l-6 2q-27 -31 -60 -59.5t-74.5 -51t-92 -36t-111.5 -13.5q-67 0 -115 13q-58 15 -100 47.5t-69 79t-39.5 104t-12.5 121.5q0 153 38.5 281.5t114 221.5t186.5 145t255 52q31 0 70.5 -3t83 -10t89 -18.5t87.5 -27.5zM987 909q-28 16 -89 27.5
t-138 11.5q-96 0 -168.5 -27.5t-126 -74t-89 -107.5t-56.5 -127.5t-30 -135.5t-9 -130q0 -54 11.5 -106.5t40 -93.5t76 -66t119.5 -25q76 0 138 23t107.5 61t74 85.5t37.5 97.5zM955 1534q17 -5 33.5 -11t29.5 -14.5t21 -19.5t8 -25q0 -20 -16.5 -42t-36.5 -42
q-35 -37 -96 -89t-158 -134l-43 41z" />
    <glyph glyph-name="acircumflex" unicode="&#xe2;" horiz-adv-x="1092" 
d="M958 164l-14 -164h-98l12 129l-6 2q-27 -31 -60 -59.5t-74.5 -51t-92 -36t-111.5 -13.5q-67 0 -115 13q-58 15 -100 47.5t-69 79t-39.5 104t-12.5 121.5q0 153 38.5 281.5t114 221.5t186.5 145t255 52q31 0 70.5 -3t83 -10t89 -18.5t87.5 -27.5zM987 909q-28 16 -89 27.5
t-138 11.5q-96 0 -168.5 -27.5t-126 -74t-89 -107.5t-56.5 -127.5t-30 -135.5t-9 -130q0 -54 11.5 -106.5t40 -93.5t76 -66t119.5 -25q76 0 138 23t107.5 61t74 85.5t37.5 97.5zM537 1200q43 51 79 90t64.5 69.5t50.5 53t39 39.5q19 20 41.5 33.5t48.5 13.5q25 0 42 -11
t32 -34q12 -19 27 -43t32.5 -55.5t37.5 -72t44 -91.5l-45 -33l-186 215l-258 -215z" />
    <glyph glyph-name="atilde" unicode="&#xe3;" horiz-adv-x="1092" 
d="M958 164l-14 -164h-98l12 129l-6 2q-27 -31 -60 -59.5t-74.5 -51t-92 -36t-111.5 -13.5q-67 0 -115 13q-58 15 -100 47.5t-69 79t-39.5 104t-12.5 121.5q0 153 38.5 281.5t114 221.5t186.5 145t255 52q31 0 70.5 -3t83 -10t89 -18.5t87.5 -27.5zM987 909q-28 16 -89 27.5
t-138 11.5q-96 0 -168.5 -27.5t-126 -74t-89 -107.5t-56.5 -127.5t-30 -135.5t-9 -130q0 -54 11.5 -106.5t40 -93.5t76 -66t119.5 -25q76 0 138 23t107.5 61t74 85.5t37.5 97.5zM557 1325q40 28 85 40.5t83 12.5q37 0 69 -8t61.5 -17.5t59 -17.5t62.5 -8q31 0 63.5 9.5
t61.5 25.5l-4 -102q-34 -16 -66 -25.5t-74 -9.5q-32 0 -65.5 6.5t-66.5 15t-64.5 15t-59.5 6.5q-38 0 -73.5 -9.5t-77.5 -29.5z" />
    <glyph glyph-name="adieresis" unicode="&#xe4;" horiz-adv-x="1092" 
d="M958 164l-14 -164h-98l12 129l-6 2q-27 -31 -60 -59.5t-74.5 -51t-92 -36t-111.5 -13.5q-67 0 -115 13q-58 15 -100 47.5t-69 79t-39.5 104t-12.5 121.5q0 153 38.5 281.5t114 221.5t186.5 145t255 52q31 0 70.5 -3t83 -10t89 -18.5t87.5 -27.5zM987 909q-28 16 -89 27.5
t-138 11.5q-96 0 -168.5 -27.5t-126 -74t-89 -107.5t-56.5 -127.5t-30 -135.5t-9 -130q0 -54 11.5 -106.5t40 -93.5t76 -66t119.5 -25q76 0 138 23t107.5 61t74 85.5t37.5 97.5zM557 1290q0 23 9 43t24 34.5t34.5 23t40.5 8.5q32 0 53 -22t21 -56q0 -24 -9 -44t-24.5 -34.5
t-35 -22.5t-40.5 -8q-34 0 -53.5 21.5t-19.5 56.5zM901 1290q0 23 9 43t24 34.5t34.5 23t40.5 8.5q32 0 53 -22t21 -56q0 -24 -9 -44t-24.5 -34.5t-35 -22.5t-40.5 -8q-34 0 -53.5 21.5t-19.5 56.5z" />
    <glyph glyph-name="aring" unicode="&#xe5;" horiz-adv-x="1092" 
d="M958 164l-14 -164h-98l12 129l-6 2q-27 -31 -60 -59.5t-74.5 -51t-92 -36t-111.5 -13.5q-67 0 -115 13q-58 15 -100 47.5t-69 79t-39.5 104t-12.5 121.5q0 153 38.5 281.5t114 221.5t186.5 145t255 52q31 0 70.5 -3t83 -10t89 -18.5t87.5 -27.5zM987 909q-28 16 -89 27.5
t-138 11.5q-96 0 -168.5 -27.5t-126 -74t-89 -107.5t-56.5 -127.5t-30 -135.5t-9 -130q0 -54 11.5 -106.5t40 -93.5t76 -66t119.5 -25q76 0 138 23t107.5 61t74 85.5t37.5 97.5zM654 1315q0 44 15.5 81.5t42.5 65t64.5 43t81.5 15.5q38 0 66.5 -11.5t47.5 -31.5t28.5 -46.5
t9.5 -56.5q0 -44 -15.5 -82t-43 -65.5t-66.5 -43.5t-86 -16q-37 0 -64 11.5t-45 31.5t-27 47t-9 58zM746 1323q0 -76 65 -76q28 0 48.5 10t33.5 26.5t19 38.5t6 46q0 32 -17.5 53t-54.5 21q-28 0 -47 -11t-31 -28.5t-17 -38.5t-5 -41z" />
    <glyph glyph-name="ae" unicode="&#xe6;" horiz-adv-x="1524" 
d="M1327 1036q61 0 108.5 -15t79 -43t48 -66.5t16.5 -86.5q0 -69 -23 -121.5t-62 -92t-91 -67t-109.5 -45.5t-117.5 -27.5t-116 -13t-104 -3t-82 3.5q-10 -78 -2.5 -150.5t37.5 -128t86 -88.5t144 -33q56 0 102.5 12t82.5 28t60.5 32t36.5 25l45 -72q-68 -50 -155 -81.5
t-199 -31.5q-90 0 -156 30t-100 75q-34 -26 -73 -45.5t-80.5 -32.5t-84.5 -20t-83 -7q-99 0 -166.5 30t-109.5 83.5t-60.5 127t-18.5 159.5q0 145 39.5 267t114.5 210.5t182.5 138t243.5 49.5q39 0 79.5 -6t79.5 -16.5t75 -26.5t65 -35q57 41 123.5 62.5t144.5 21.5z
M735 950q-77 0 -140 -23t-112.5 -63.5t-86.5 -95.5t-61 -119t-36 -133.5t-12 -138.5q0 -68 13.5 -126t43.5 -101.5t78.5 -68t118.5 -24.5q75 0 143.5 24t124.5 62q-20 45 -31.5 107t-11.5 127q0 153 57 284t154 228q-42 25 -101 43t-141 18zM1470 811q0 71 -42.5 107
t-116.5 36q-93 0 -165 -40.5t-124 -102t-84 -133.5t-45 -135q22 -2 58 -2.5t80.5 2t94.5 9.5t98.5 20t93 33t78.5 49t54 67.5t20 89.5z" />
    <glyph glyph-name="ccedilla" unicode="&#xe7;" horiz-adv-x="911" 
d="M551 59q66 0 144 23t147 74l45 -72q-22 -18 -54 -36t-71 -33t-83.5 -25.5t-90.5 -14.5l-64 -133q31 -2 58 -10.5t47.5 -25t32.5 -41t12 -56.5q0 -47 -18.5 -81t-49.5 -56t-71.5 -32.5t-83.5 -10.5q-42 0 -85.5 9t-74.5 28l35 69q21 -9 56.5 -17.5t70.5 -8.5q34 0 57 7.5
t37.5 20.5t21 29t6.5 33q0 22 -8 38t-27.5 26t-51 14.5t-78.5 3.5l94 192q-163 10 -240.5 111t-77.5 276q0 132 24.5 233.5t65.5 176.5t95 126t112 82t117 44.5t111 13.5q43 0 88 -9t87 -29.5t79 -54.5t63 -85l-78 -47q-46 75 -106 106t-137 31q-84 0 -159.5 -36.5
t-132.5 -108.5t-90.5 -178.5t-33.5 -247.5q0 -73 13 -132t43.5 -100t80.5 -63.5t123 -22.5z" />
    <glyph glyph-name="egrave" unicode="&#xe8;" horiz-adv-x="922" 
d="M868 811q0 72 -42.5 107.5t-114.5 35.5q-95 0 -165 -40.5t-118 -102t-77 -133.5t-42 -135q29 -3 81.5 -3t114.5 7.5t126.5 24t117 47.5t86 78t33.5 114zM719 1036q61 0 109 -15t81 -42.5t50.5 -65.5t17.5 -84q0 -69 -22 -122.5t-60 -93.5t-87.5 -67.5t-105.5 -45.5
t-114.5 -28t-112.5 -13.5t-101.5 -3t-80.5 3.5q-9 -74 -2.5 -145.5t35.5 -128t86 -91.5t149 -35q56 0 102.5 12t82 28t60 32t36.5 25l45 -72q-26 -21 -62 -41t-79.5 -36t-93 -26t-103.5 -10q-95 0 -164 29.5t-113 82t-65 126t-21 162.5q0 135 35.5 256t104 211.5t167.5 144
t226 53.5zM866 1196l-55 -35q-73 90 -119.5 148.5t-69.5 95.5q-11 17 -18.5 35t-7.5 35q0 18 9.5 30.5t25 21.5t36 14.5t41.5 10.5z" />
    <glyph glyph-name="eacute" unicode="&#xe9;" horiz-adv-x="922" 
d="M868 811q0 72 -42.5 107.5t-114.5 35.5q-95 0 -165 -40.5t-118 -102t-77 -133.5t-42 -135q29 -3 81.5 -3t114.5 7.5t126.5 24t117 47.5t86 78t33.5 114zM719 1036q61 0 109 -15t81 -42.5t50.5 -65.5t17.5 -84q0 -69 -22 -122.5t-60 -93.5t-87.5 -67.5t-105.5 -45.5
t-114.5 -28t-112.5 -13.5t-101.5 -3t-80.5 3.5q-9 -74 -2.5 -145.5t35.5 -128t86 -91.5t149 -35q56 0 102.5 12t82 28t60 32t36.5 25l45 -72q-26 -21 -62 -41t-79.5 -36t-93 -26t-103.5 -10q-95 0 -164 29.5t-113 82t-65 126t-21 162.5q0 135 35.5 256t104 211.5t167.5 144
t226 53.5zM893 1534q17 -5 33.5 -11t29.5 -14.5t21 -19.5t8 -25q0 -20 -16.5 -42t-36.5 -42q-35 -37 -96 -89t-158 -134l-43 41z" />
    <glyph glyph-name="ecircumflex" unicode="&#xea;" horiz-adv-x="922" 
d="M868 811q0 72 -42.5 107.5t-114.5 35.5q-95 0 -165 -40.5t-118 -102t-77 -133.5t-42 -135q29 -3 81.5 -3t114.5 7.5t126.5 24t117 47.5t86 78t33.5 114zM719 1036q61 0 109 -15t81 -42.5t50.5 -65.5t17.5 -84q0 -69 -22 -122.5t-60 -93.5t-87.5 -67.5t-105.5 -45.5
t-114.5 -28t-112.5 -13.5t-101.5 -3t-80.5 3.5q-9 -74 -2.5 -145.5t35.5 -128t86 -91.5t149 -35q56 0 102.5 12t82 28t60 32t36.5 25l45 -72q-26 -21 -62 -41t-79.5 -36t-93 -26t-103.5 -10q-95 0 -164 29.5t-113 82t-65 126t-21 162.5q0 135 35.5 256t104 211.5t167.5 144
t226 53.5zM488 1200q43 51 79 90t64.5 69.5t50.5 53t39 39.5q19 20 41.5 33.5t48.5 13.5q25 0 42 -11t32 -34q12 -19 27 -43t32.5 -55.5t37.5 -72t44 -91.5l-45 -33l-186 215l-258 -215z" />
    <glyph glyph-name="edieresis" unicode="&#xeb;" horiz-adv-x="922" 
d="M868 811q0 72 -42.5 107.5t-114.5 35.5q-95 0 -165 -40.5t-118 -102t-77 -133.5t-42 -135q29 -3 81.5 -3t114.5 7.5t126.5 24t117 47.5t86 78t33.5 114zM719 1036q61 0 109 -15t81 -42.5t50.5 -65.5t17.5 -84q0 -69 -22 -122.5t-60 -93.5t-87.5 -67.5t-105.5 -45.5
t-114.5 -28t-112.5 -13.5t-101.5 -3t-80.5 3.5q-9 -74 -2.5 -145.5t35.5 -128t86 -91.5t149 -35q56 0 102.5 12t82 28t60 32t36.5 25l45 -72q-26 -21 -62 -41t-79.5 -36t-93 -26t-103.5 -10q-95 0 -164 29.5t-113 82t-65 126t-21 162.5q0 135 35.5 256t104 211.5t167.5 144
t226 53.5zM496 1290q0 23 9 43t24 34.5t34.5 23t40.5 8.5q32 0 53 -22t21 -56q0 -24 -9 -44t-24.5 -34.5t-35 -22.5t-40.5 -8q-34 0 -53.5 21.5t-19.5 56.5zM840 1290q0 23 9 43t24 34.5t34.5 23t40.5 8.5q32 0 53 -22t21 -56q0 -24 -9 -44t-24.5 -34.5t-35 -22.5t-40.5 -8
q-34 0 -53.5 21.5t-19.5 56.5z" />
    <glyph glyph-name="igrave" unicode="&#xec;" horiz-adv-x="434" 
d="M168 0l178 1008h103l-179 -1008h-102zM555 1196l-55 -35q-73 90 -119.5 148.5t-69.5 95.5q-11 17 -18.5 35t-7.5 35q0 18 9.5 30.5t25 21.5t36 14.5t41.5 10.5z" />
    <glyph glyph-name="iacute" unicode="&#xed;" horiz-adv-x="434" 
d="M168 0l178 1008h103l-179 -1008h-102zM549 1534q17 -5 33.5 -11t29.5 -14.5t21 -19.5t8 -25q0 -20 -16.5 -42t-36.5 -42q-35 -37 -96 -89t-158 -134l-43 41z" />
    <glyph glyph-name="icircumflex" unicode="&#xee;" horiz-adv-x="434" 
d="M168 0l178 1008h103l-179 -1008h-102zM178 1200q43 51 79 90t64.5 69.5t50.5 53t39 39.5q19 20 41.5 33.5t48.5 13.5q25 0 42 -11t32 -34q12 -19 27 -43t32.5 -55.5t37.5 -72t44 -91.5l-45 -33l-186 215l-258 -215z" />
    <glyph glyph-name="idieresis" unicode="&#xef;" horiz-adv-x="434" 
d="M168 0l178 1008h103l-179 -1008h-102zM199 1290q0 23 9 43t24 34.5t34.5 23t40.5 8.5q32 0 53 -22t21 -56q0 -24 -9 -44t-24.5 -34.5t-35 -22.5t-40.5 -8q-34 0 -53.5 21.5t-19.5 56.5zM543 1290q0 23 9 43t24 34.5t34.5 23t40.5 8.5q32 0 53 -22t21 -56q0 -24 -9 -44
t-24.5 -34.5t-35 -22.5t-40.5 -8q-34 0 -53.5 21.5t-19.5 56.5z" />
    <glyph glyph-name="eth" unicode="&#xf0;" horiz-adv-x="1014" 
d="M1112 1430l39 -64l-236 -139q32 -45 55.5 -103.5t39 -123t23 -133t7.5 -134.5q0 -94 -13 -187t-40 -177.5t-69.5 -157t-102.5 -126t-137 -84t-174 -30.5q-91 0 -156.5 27.5t-108 76t-63 115t-20.5 144.5q0 117 36 221t102 181t158.5 122t204.5 45q84 0 151 -22t132 -62
q-3 96 -28 183t-85 172l-252 -158l-38 63l245 150q-51 49 -118.5 86t-155.5 55l35 86q106 -23 185.5 -68t139.5 -108zM264 342q0 -146 66.5 -215.5t185.5 -69.5q100 0 178.5 52.5t132.5 138.5t82.5 196t28.5 226v41q-22 21 -53 40t-67.5 33.5t-78 23.5t-84.5 9
q-93 0 -165.5 -39t-122.5 -104.5t-76.5 -151.5t-26.5 -180z" />
    <glyph glyph-name="ntilde" unicode="&#xf1;" horiz-adv-x="1104" 
d="M166 0l153 872l15 136h94l-10 -158q78 93 175 139.5t198 46.5q136 0 204 -63t68 -187q0 -11 -1 -27t-2.5 -33t-4 -34t-4.5 -30l-119 -662h-103l113 641q6 32 9 64t3 67q0 37 -9 70t-30 57.5t-56 38.5t-87 14q-73 0 -139 -25.5t-117.5 -66t-85.5 -90.5t-43 -100l-119 -670
h-102zM524 1325q40 28 85 40.5t83 12.5q37 0 69 -8t61.5 -17.5t59 -17.5t62.5 -8q31 0 63.5 9.5t61.5 25.5l-4 -102q-34 -16 -66 -25.5t-74 -9.5q-32 0 -65.5 6.5t-66.5 15t-64.5 15t-59.5 6.5q-38 0 -73.5 -9.5t-77.5 -29.5z" />
    <glyph glyph-name="ograve" unicode="&#xf2;" horiz-adv-x="1065" 
d="M535 55q84 0 152 37t119 98.5t85 142t49 167.5q8 42 11 81t3 76q0 65 -12.5 118.5t-41.5 92t-75.5 59.5t-113.5 21q-84 0 -151.5 -32t-118.5 -88t-84.5 -132.5t-49.5 -165.5q-8 -43 -12 -87t-4 -89q0 -59 10.5 -113t37.5 -95.5t74.5 -66t121.5 -24.5zM201 528
q18 105 51 184t75.5 135.5t92.5 93t101.5 57.5t103 29.5t96.5 8.5q37 0 76.5 -6.5t77.5 -22.5t72 -42t60 -65t41 -92t15 -122q0 -35 -3 -80t-11 -90q-27 -152 -79.5 -256t-122 -168.5t-153 -92.5t-172.5 -28q-163 0 -250.5 93t-87.5 278q0 40 3.5 88.5t13.5 97.5zM895 1196
l-55 -35q-73 90 -119.5 148.5t-69.5 95.5q-11 17 -18.5 35t-7.5 35q0 18 9.5 30.5t25 21.5t36 14.5t41.5 10.5z" />
    <glyph glyph-name="oacute" unicode="&#xf3;" horiz-adv-x="1065" 
d="M535 55q84 0 152 37t119 98.5t85 142t49 167.5q8 42 11 81t3 76q0 65 -12.5 118.5t-41.5 92t-75.5 59.5t-113.5 21q-84 0 -151.5 -32t-118.5 -88t-84.5 -132.5t-49.5 -165.5q-8 -43 -12 -87t-4 -89q0 -59 10.5 -113t37.5 -95.5t74.5 -66t121.5 -24.5zM201 528
q18 105 51 184t75.5 135.5t92.5 93t101.5 57.5t103 29.5t96.5 8.5q37 0 76.5 -6.5t77.5 -22.5t72 -42t60 -65t41 -92t15 -122q0 -35 -3 -80t-11 -90q-27 -152 -79.5 -256t-122 -168.5t-153 -92.5t-172.5 -28q-163 0 -250.5 93t-87.5 278q0 40 3.5 88.5t13.5 97.5zM903 1534
q17 -5 33.5 -11t29.5 -14.5t21 -19.5t8 -25q0 -20 -16.5 -42t-36.5 -42q-35 -37 -96 -89t-158 -134l-43 41z" />
    <glyph glyph-name="ocircumflex" unicode="&#xf4;" horiz-adv-x="1065" 
d="M535 55q84 0 152 37t119 98.5t85 142t49 167.5q8 42 11 81t3 76q0 65 -12.5 118.5t-41.5 92t-75.5 59.5t-113.5 21q-84 0 -151.5 -32t-118.5 -88t-84.5 -132.5t-49.5 -165.5q-8 -43 -12 -87t-4 -89q0 -59 10.5 -113t37.5 -95.5t74.5 -66t121.5 -24.5zM201 528
q18 105 51 184t75.5 135.5t92.5 93t101.5 57.5t103 29.5t96.5 8.5q37 0 76.5 -6.5t77.5 -22.5t72 -42t60 -65t41 -92t15 -122q0 -35 -3 -80t-11 -90q-27 -152 -79.5 -256t-122 -168.5t-153 -92.5t-172.5 -28q-163 0 -250.5 93t-87.5 278q0 40 3.5 88.5t13.5 97.5zM496 1200
q43 51 79 90t64.5 69.5t50.5 53t39 39.5q19 20 41.5 33.5t48.5 13.5q25 0 42 -11t32 -34q12 -19 27 -43t32.5 -55.5t37.5 -72t44 -91.5l-45 -33l-186 215l-258 -215z" />
    <glyph glyph-name="otilde" unicode="&#xf5;" horiz-adv-x="1065" 
d="M535 55q84 0 152 37t119 98.5t85 142t49 167.5q8 42 11 81t3 76q0 65 -12.5 118.5t-41.5 92t-75.5 59.5t-113.5 21q-84 0 -151.5 -32t-118.5 -88t-84.5 -132.5t-49.5 -165.5q-8 -43 -12 -87t-4 -89q0 -59 10.5 -113t37.5 -95.5t74.5 -66t121.5 -24.5zM201 528
q18 105 51 184t75.5 135.5t92.5 93t101.5 57.5t103 29.5t96.5 8.5q37 0 76.5 -6.5t77.5 -22.5t72 -42t60 -65t41 -92t15 -122q0 -35 -3 -80t-11 -90q-27 -152 -79.5 -256t-122 -168.5t-153 -92.5t-172.5 -28q-163 0 -250.5 93t-87.5 278q0 40 3.5 88.5t13.5 97.5zM516 1325
q40 28 85 40.5t83 12.5q37 0 69 -8t61.5 -17.5t59 -17.5t62.5 -8q31 0 63.5 9.5t61.5 25.5l-4 -102q-34 -16 -66 -25.5t-74 -9.5q-32 0 -65.5 6.5t-66.5 15t-64.5 15t-59.5 6.5q-38 0 -73.5 -9.5t-77.5 -29.5z" />
    <glyph glyph-name="odieresis" unicode="&#xf6;" horiz-adv-x="1065" 
d="M535 55q84 0 152 37t119 98.5t85 142t49 167.5q8 42 11 81t3 76q0 65 -12.5 118.5t-41.5 92t-75.5 59.5t-113.5 21q-84 0 -151.5 -32t-118.5 -88t-84.5 -132.5t-49.5 -165.5q-8 -43 -12 -87t-4 -89q0 -59 10.5 -113t37.5 -95.5t74.5 -66t121.5 -24.5zM201 528
q18 105 51 184t75.5 135.5t92.5 93t101.5 57.5t103 29.5t96.5 8.5q37 0 76.5 -6.5t77.5 -22.5t72 -42t60 -65t41 -92t15 -122q0 -35 -3 -80t-11 -90q-27 -152 -79.5 -256t-122 -168.5t-153 -92.5t-172.5 -28q-163 0 -250.5 93t-87.5 278q0 40 3.5 88.5t13.5 97.5zM517 1290
q0 23 9 43t24 34.5t34.5 23t40.5 8.5q32 0 53 -22t21 -56q0 -24 -9 -44t-24.5 -34.5t-35 -22.5t-40.5 -8q-34 0 -53.5 21.5t-19.5 56.5zM861 1290q0 23 9 43t24 34.5t34.5 23t40.5 8.5q32 0 53 -22t21 -56q0 -24 -9 -44t-24.5 -34.5t-35 -22.5t-40.5 -8q-34 0 -53.5 21.5
t-19.5 56.5z" />
    <glyph glyph-name="divide" unicode="&#xf7;" horiz-adv-x="1096" 
d="M594 952q0 28 10 51t26.5 39.5t38.5 25.5t46 9q42 0 66 -24t24 -62q0 -26 -9.5 -48.5t-25.5 -39.5t-38.5 -27t-47.5 -10q-43 0 -66.5 23t-23.5 63zM500 299q0 28 10 51t26.5 39.5t38.5 25.5t46 9q42 0 66 -24t24 -62q0 -26 -9.5 -49t-26 -40t-38.5 -26.5t-47 -9.5
q-44 0 -67 23t-23 63zM1071 612h-829l14 90h829z" />
    <glyph glyph-name="oslash" unicode="&#xf8;" horiz-adv-x="1065" 
d="M201 528q18 105 51 184t75.5 135.5t92.5 93t101.5 57.5t103 29.5t96.5 8.5t92 -10t92 -35l119 176l74 -41l-127 -184q42 -40 67 -102.5t25 -153.5q0 -35 -3 -80t-11 -90q-27 -152 -79.5 -256t-122 -168.5t-153 -92.5t-172.5 -28q-55 0 -101.5 11.5t-84.5 31.5l-115 -170
l-71 41l120 178q-86 94 -86 279q0 40 3.5 88.5t13.5 97.5zM535 55q84 0 152 37t119 98.5t85 142t49 167.5q8 42 11 81t3 76q0 59 -11 108.5t-34 86.5l-518 -760q26 -17 61.5 -27t82.5 -10zM711 948q-84 0 -151.5 -32t-118.5 -88t-84.5 -132.5t-49.5 -165.5q-8 -43 -12 -87
t-4 -89q0 -57 9 -107.5t32 -92.5l518 759q-53 35 -139 35z" />
    <glyph glyph-name="ugrave" unicode="&#xf9;" horiz-adv-x="1102" 
d="M1110 1008l-154 -873l-14 -135h-94l10 152q-37 -50 -80 -84.5t-89.5 -56t-95.5 -31t-97 -9.5h-11q-272 0 -272 244q0 23 2.5 56t7.5 59l121 678h102l-114 -650q-6 -31 -9.5 -68t-3.5 -63q0 -42 9 -74t32 -54t63.5 -33t102.5 -11q61 0 122 25t111.5 66.5t86 94.5t45.5 109
l117 658h102zM868 1196l-55 -35q-73 90 -119.5 148.5t-69.5 95.5q-11 17 -18.5 35t-7.5 35q0 18 9.5 30.5t25 21.5t36 14.5t41.5 10.5z" />
    <glyph glyph-name="uacute" unicode="&#xfa;" horiz-adv-x="1102" 
d="M1110 1008l-154 -873l-14 -135h-94l10 152q-37 -50 -80 -84.5t-89.5 -56t-95.5 -31t-97 -9.5h-11q-272 0 -272 244q0 23 2.5 56t7.5 59l121 678h102l-114 -650q-6 -31 -9.5 -68t-3.5 -63q0 -42 9 -74t32 -54t63.5 -33t102.5 -11q61 0 122 25t111.5 66.5t86 94.5t45.5 109
l117 658h102zM912 1534q17 -5 33.5 -11t29.5 -14.5t21 -19.5t8 -25q0 -20 -16.5 -42t-36.5 -42q-35 -37 -96 -89t-158 -134l-43 41z" />
    <glyph glyph-name="ucircumflex" unicode="&#xfb;" horiz-adv-x="1102" 
d="M1110 1008l-154 -873l-14 -135h-94l10 152q-37 -50 -80 -84.5t-89.5 -56t-95.5 -31t-97 -9.5h-11q-272 0 -272 244q0 23 2.5 56t7.5 59l121 678h102l-114 -650q-6 -31 -9.5 -68t-3.5 -63q0 -42 9 -74t32 -54t63.5 -33t102.5 -11q61 0 122 25t111.5 66.5t86 94.5t45.5 109
l117 658h102zM492 1200q43 51 79 90t64.5 69.5t50.5 53t39 39.5q19 20 41.5 33.5t48.5 13.5q25 0 42 -11t32 -34q12 -19 27 -43t32.5 -55.5t37.5 -72t44 -91.5l-45 -33l-186 215l-258 -215z" />
    <glyph glyph-name="udieresis" unicode="&#xfc;" horiz-adv-x="1102" 
d="M1110 1008l-154 -873l-14 -135h-94l10 152q-37 -50 -80 -84.5t-89.5 -56t-95.5 -31t-97 -9.5h-11q-272 0 -272 244q0 23 2.5 56t7.5 59l121 678h102l-114 -650q-6 -31 -9.5 -68t-3.5 -63q0 -42 9 -74t32 -54t63.5 -33t102.5 -11q61 0 122 25t111.5 66.5t86 94.5t45.5 109
l117 658h102zM512 1290q0 23 9 43t24 34.5t34.5 23t40.5 8.5q32 0 53 -22t21 -56q0 -24 -9 -44t-24.5 -34.5t-35 -22.5t-40.5 -8q-34 0 -53.5 21.5t-19.5 56.5zM856 1290q0 23 9 43t24 34.5t34.5 23t40.5 8.5q32 0 53 -22t21 -56q0 -24 -9 -44t-24.5 -34.5t-35 -22.5
t-40.5 -8q-34 0 -53.5 21.5t-19.5 56.5z" />
    <glyph glyph-name="yacute" unicode="&#xfd;" horiz-adv-x="1090" 
d="M924 -16q-14 -76 -35.5 -151t-52.5 -132q-31 -58 -69.5 -103.5t-88 -77t-111 -48.5t-137.5 -17q-131 0 -195.5 59.5t-64.5 159.5q0 78 27 136t70.5 103t98 79.5t109.5 64.5q-51 4 -96 18t-79.5 42t-54.5 73t-20 111q0 22 1.5 45t6.5 49l109 613h102l-100 -572
q-6 -35 -10 -67.5t-4 -61.5q0 -38 10 -70t35.5 -55t70 -36t113.5 -13q58 0 114.5 20t103 56.5t79 86.5t43.5 110l107 602h98zM276 -309q0 -78 44.5 -115t128.5 -37q81 0 142 32.5t106 90t74.5 137t47.5 174.5l41 215q-31 -31 -61.5 -53t-64.5 -40.5t-73.5 -36.5t-87.5 -40
q-69 -32 -124 -66t-93.5 -73t-59 -85t-20.5 -103zM899 1534q17 -5 33.5 -11t29.5 -14.5t21 -19.5t8 -25q0 -20 -16.5 -42t-36.5 -42q-35 -37 -96 -89t-158 -134l-43 41z" />
    <glyph glyph-name="thorn" unicode="&#xfe;" horiz-adv-x="1075" 
d="M190 -430h-102l326 1853h102l-74 -422q70 16 130.5 25.5t117.5 9.5q198 0 288.5 -100t90.5 -301q0 -147 -34.5 -269.5t-99 -210t-156 -136t-206.5 -48.5q-44 0 -86 8t-80 21.5t-70 31.5t-56 38zM297 170q21 -21 51.5 -41.5t66.5 -36.5t75 -25.5t77 -9.5q75 0 146.5 31
t127.5 100t90 179t34 268q0 63 -13 120t-45.5 99.5t-87.5 68t-139 25.5q-31 0 -64.5 -2.5t-66.5 -7.5t-64.5 -12.5t-58.5 -16.5z" />
    <glyph glyph-name="ydieresis" unicode="&#xff;" horiz-adv-x="1090" 
d="M924 -16q-14 -76 -35.5 -151t-52.5 -132q-31 -58 -69.5 -103.5t-88 -77t-111 -48.5t-137.5 -17q-131 0 -195.5 59.5t-64.5 159.5q0 78 27 136t70.5 103t98 79.5t109.5 64.5q-51 4 -96 18t-79.5 42t-54.5 73t-20 111q0 22 1.5 45t6.5 49l109 613h102l-100 -572
q-6 -35 -10 -67.5t-4 -61.5q0 -38 10 -70t35.5 -55t70 -36t113.5 -13q58 0 114.5 20t103 56.5t79 86.5t43.5 110l107 602h98zM276 -309q0 -78 44.5 -115t128.5 -37q81 0 142 32.5t106 90t74.5 137t47.5 174.5l41 215q-31 -31 -61.5 -53t-64.5 -40.5t-73.5 -36.5t-87.5 -40
q-69 -32 -124 -66t-93.5 -73t-59 -85t-20.5 -103zM519 1290q0 23 9 43t24 34.5t34.5 23t40.5 8.5q32 0 53 -22t21 -56q0 -24 -9 -44t-24.5 -34.5t-35 -22.5t-40.5 -8q-34 0 -53.5 21.5t-19.5 56.5zM863 1290q0 23 9 43t24 34.5t34.5 23t40.5 8.5q32 0 53 -22t21 -56
q0 -24 -9 -44t-24.5 -34.5t-35 -22.5t-40.5 -8q-34 0 -53.5 21.5t-19.5 56.5z" />
    <glyph glyph-name="dotlessi" unicode="&#x131;" horiz-adv-x="434" 
d="M168 0l178 1008h103l-179 -1008h-102z" />
    <glyph glyph-name="OE" unicode="&#x152;" horiz-adv-x="1712" 
d="M946 1386q50 0 102.5 -6.5t96.5 -17.5h727l-14 -88h-621l-94 -535h532l-16 -88h-533l-98 -563h635l-16 -88h-746q-46 -11 -99.5 -18t-109.5 -7q-114 0 -204.5 34t-152.5 101.5t-95 167.5t-33 232q0 161 31 288.5t85 225t126 166.5t154 112.5t170 63.5t173 20zM315 530
q0 -97 20 -181.5t67.5 -147.5t126.5 -99t196 -36q57 0 108 8t93 22l207 1170q-39 14 -91 21t-112 7q-103 0 -188.5 -30t-154 -83t-119.5 -125.5t-85 -157.5t-51 -178.5t-17 -189.5z" />
    <glyph glyph-name="oe" unicode="&#x153;" horiz-adv-x="1690" 
d="M1487 1036q61 0 109 -15t81 -42.5t50.5 -65.5t17.5 -84q0 -69 -23 -122.5t-62 -93.5t-91 -67.5t-109.5 -45.5t-117.5 -28t-116 -13.5t-104 -3t-82 3.5q-8 -74 -1.5 -145.5t35.5 -128t86 -91.5t149 -35q56 0 102 12t81.5 28t60 32t36.5 25l45 -72q-26 -21 -61.5 -41
t-79 -36t-93.5 -26t-104 -10q-74 0 -130 18t-97.5 51t-68 79.5t-39.5 103.5q-70 -128 -181 -190t-243 -62q-171 0 -261 101t-90 307q0 127 23 225.5t62.5 171.5t91.5 122.5t110 80t119 44t117 13.5q40 0 91 -8.5t99 -37t87 -82t56 -142.5q34 61 79.5 110.5t101.5 85
t122.5 55t141.5 19.5zM543 59q101 0 179 46t131 123.5t80.5 178t27.5 209.5q0 78 -14.5 140t-45.5 104.5t-80.5 65t-118.5 22.5q-104 0 -181.5 -44t-128.5 -120t-76 -179t-25 -220q0 -65 11.5 -124t40.5 -104t77.5 -71.5t122.5 -26.5zM1636 811q0 72 -42.5 107.5
t-114.5 35.5q-95 0 -168 -40.5t-125 -102t-84 -133.5t-45 -135q21 -2 57.5 -2.5t81 2t94.5 9.5t99 20t94 33t79 49t54 67.5t20 89.5z" />
    <glyph glyph-name="Scaron" unicode="&#x160;" horiz-adv-x="1092" 
d="M184 195q18 -15 50 -36.5t77 -41.5t102 -34.5t124 -14.5q61 0 127 11.5t121 44.5t90.5 92.5t35.5 156.5q0 61 -22.5 104t-61 74.5t-90 55.5t-108.5 46q-62 24 -121.5 51t-107 67t-76.5 97t-29 140q0 84 32.5 154t93 119.5t146.5 77t193 27.5q73 0 136 -16t114.5 -42
t91.5 -58.5t67 -65.5l-71 -65q-68 72 -151.5 113.5t-192.5 41.5q-59 0 -120 -12.5t-111.5 -43.5t-82.5 -83.5t-32 -132.5q0 -65 23 -109t61.5 -76.5t88 -56t103.5 -45.5q61 -25 121.5 -52t108.5 -66t78 -94.5t30 -137.5q0 -94 -30.5 -169.5t-90.5 -129t-149.5 -82.5
t-208.5 -29q-76 0 -144.5 14.5t-123.5 35.5t-94.5 45t-57.5 43zM837 1597l289 207l43 -39q-45 -48 -82 -85t-67.5 -65t-56 -49t-46.5 -38t-45.5 -32t-50.5 -15q-25 0 -42 10.5t-36 30.5q-18 21 -36.5 43.5t-39.5 51t-44.5 64t-51.5 82.5l49 35z" />
    <glyph glyph-name="scaron" unicode="&#x161;" horiz-adv-x="809" 
d="M143 143q19 -14 45 -29.5t59 -28.5t73 -21.5t88 -8.5q56 0 105.5 12.5t87 39t59.5 67.5t22 98q0 43 -14.5 73.5t-40 52.5t-59 37.5t-70.5 29.5q-49 18 -99 37t-90 48.5t-65 73.5t-25 113q0 74 29 130t78 93.5t114.5 56.5t137.5 19q54 0 102 -12t87.5 -31.5t70 -44.5
t49.5 -51l-68 -57q-38 48 -100.5 80t-149.5 32q-46 0 -91 -11t-81 -35t-58 -62t-22 -92q0 -47 19 -79t50.5 -55t72 -40t82.5 -33q45 -17 89 -36t78 -47t55 -68.5t21 -98.5q0 -80 -26 -140.5t-75 -101.5t-118 -61.5t-155 -20.5q-59 0 -111.5 10t-94.5 25t-72 32t-44 30z
M950 1458q-44 -51 -79.5 -90t-64 -69.5t-50.5 -53t-39 -39.5q-19 -20 -41.5 -33.5t-48.5 -13.5q-25 0 -42 11t-32 34q-12 19 -27 43t-32.5 55t-37.5 71t-44 91l49 35l180 -215l266 213z" />
    <glyph glyph-name="Ydieresis" unicode="&#x178;" horiz-adv-x="1030" 
d="M1229 1362l-588 -846l-90 -516h-102l90 516l-299 846h112l254 -733l500 733h123zM524 1581q0 23 8.5 43t23 34.5t34 23t41.5 8.5q34 0 53.5 -22t19.5 -56q0 -24 -9 -44t-24 -34.5t-34.5 -22.5t-40.5 -8q-32 0 -52 21.5t-20 56.5zM889 1581q0 23 8.5 43t23 34.5t34 23
t40.5 8.5q34 0 54 -22t20 -56q0 -24 -9 -44t-24.5 -34.5t-35 -22.5t-40.5 -8q-32 0 -51.5 21.5t-19.5 56.5z" />
    <glyph glyph-name="Zcaron" unicode="&#x17d;" horiz-adv-x="977" 
d="M195 88h737l-17 -88h-843l18 104l922 1170h-701l15 88h804l-18 -111zM774 1597l289 207l43 -39q-45 -48 -82 -85t-67.5 -65t-56 -49t-46.5 -38t-45.5 -32t-50.5 -15q-25 0 -42 10.5t-36 30.5q-18 21 -36.5 43.5t-39.5 51t-44.5 64t-51.5 82.5l49 35z" />
    <glyph glyph-name="zcaron" unicode="&#x17e;" horiz-adv-x="784" 
d="M86 -268q0 -41 9.5 -75.5t31 -60t55.5 -39.5t82 -14q83 0 147 32t108 85.5t66.5 124.5t22.5 149q0 88 -29.5 146t-91.5 100q-114 -48 -191 -103t-123.5 -113t-66.5 -116.5t-20 -115.5zM883 905l-572 -514l135 -72q73 -38 123.5 -78.5t82 -86t45.5 -96.5t14 -111
q0 -101 -29.5 -190t-87 -156t-142.5 -105.5t-196 -38.5q-71 0 -123 19.5t-86 53.5t-50.5 81t-16.5 102q0 85 30 160t85 139.5t133 119.5t175 101q-49 23 -97 48t-97 51l16 100l545 490h-557l16 86h672zM930 1458q-44 -51 -79.5 -90t-64 -69.5t-50.5 -53t-39 -39.5
q-19 -20 -41.5 -33.5t-48.5 -13.5q-25 0 -42 11t-32 34q-12 19 -27 43t-32.5 55t-37.5 71t-44 91l49 35l180 -215l266 213z" />
    <glyph glyph-name="florin" unicode="&#x192;" horiz-adv-x="1004" 
d="M346 797h199l67 194q31 89 65 155.5t79 111t105.5 66.5t144.5 22q69 0 127 -17.5t106 -40.5l-43 -76q-42 20 -91.5 34t-100.5 14q-55 0 -97.5 -15t-75.5 -44.5t-58 -72.5t-44 -98l-82 -233h332l-33 -86h-330l-268 -768q-35 -99 -68.5 -170t-77.5 -116t-103 -66t-144 -21
q-37 0 -71.5 6t-64.5 15t-55.5 20t-44.5 22l41 76q39 -20 89 -37.5t112 -17.5q55 0 97 16.5t73.5 47.5t55.5 76t44 102l283 815h-199z" />
    <glyph glyph-name="circumflex" unicode="&#x2c6;" 
d="M457 1200q43 51 79 90t64.5 69.5t50.5 53t39 39.5q19 20 41.5 33.5t48.5 13.5q25 0 42 -11t32 -34q12 -19 27 -43t32.5 -55.5t37.5 -72t44 -91.5l-45 -33l-186 215l-258 -215z" />
    <glyph glyph-name="caron" unicode="&#x2c7;" 
d="M1032 1458q-44 -51 -79.5 -90t-64 -69.5t-50.5 -53t-39 -39.5q-19 -20 -41.5 -33.5t-48.5 -13.5q-25 0 -42 11t-32 34q-12 19 -27 43t-32.5 55t-37.5 71t-44 91l49 35l180 -215l266 213z" />
    <glyph glyph-name="ring" unicode="&#x2da;" 
d="M582 1315q0 44 15.5 81.5t42.5 65t64.5 43t81.5 15.5q38 0 66.5 -11.5t47.5 -31.5t28.5 -46.5t9.5 -56.5q0 -44 -15.5 -82t-43 -65.5t-66.5 -43.5t-86 -16q-37 0 -64 11.5t-45 31.5t-27 47t-9 58zM674 1323q0 -76 65 -76q28 0 48.5 10t33.5 26.5t19 38.5t6 46
q0 32 -17.5 53t-54.5 21q-28 0 -47 -11t-31 -28.5t-17 -38.5t-5 -41z" />
    <glyph glyph-name="tilde" unicode="&#x2dc;" 
d="M471 1325q40 28 85 40.5t83 12.5q37 0 69 -8t61.5 -17.5t59 -17.5t62.5 -8q31 0 63.5 9.5t61.5 25.5l-4 -102q-34 -16 -66 -25.5t-74 -9.5q-32 0 -65.5 6.5t-66.5 15t-64.5 15t-59.5 6.5q-38 0 -73.5 -9.5t-77.5 -29.5z" />
    <glyph glyph-name="uni03BC" unicode="&#x3bc;" horiz-adv-x="1210" 
d="M1034 135q-8 -44 5 -58t38 -14t49 8.5t64 28.5l22 -73q-42 -25 -87 -37.5t-83 -12.5q-48 0 -78 24.5t-30 80.5q0 9 1.5 22t4 27t5.5 27t5 22q-71 -99 -163.5 -154t-204.5 -55q-56 0 -99.5 11.5t-76.5 31t-55.5 45t-35.5 54.5l-98 -555h-100l256 1450h100l-108 -617
q-5 -23 -7 -45.5t-2 -44.5q0 -53 13.5 -97t42.5 -76t74 -49.5t108 -17.5q72 0 136.5 28.5t115.5 78t86 117.5t49 147l102 576h105z" />
    <glyph glyph-name="endash" unicode="&#x2013;" 
d="M117 664h1024l-17 -99h-1024z" />
    <glyph glyph-name="emdash" unicode="&#x2014;" horiz-adv-x="2048" 
d="M117 664h2048l-17 -99h-2048z" />
    <glyph glyph-name="quoteleft" unicode="&#x2018;" horiz-adv-x="369" 
d="M387 1028q-11 0 -23 0.5t-26 3.5q-25 5 -44.5 17t-19.5 38q0 22 21 62.5t55 92.5t77 110.5t87 115.5l66 -26z" />
    <glyph glyph-name="quoteright" unicode="&#x2019;" horiz-adv-x="352" 
d="M430 1470q12 0 25.5 -0.5t27.5 -3.5q25 -5 43.5 -17.5t18.5 -35.5q0 -20 -14 -50t-42.5 -74.5t-72.5 -106t-105 -144.5l-63 29z" />
    <glyph glyph-name="quotesinglbase" unicode="&#x201a;" horiz-adv-x="428" 
d="M113 -242l-64 23q16 45 30 84t27 75t25.5 71t26.5 71q24 63 47.5 89t52.5 26q14 0 28.5 -4t28 -10.5t24.5 -13.5t19 -13z" />
    <glyph glyph-name="quotedblleft" unicode="&#x201c;" horiz-adv-x="662" 
d="M385 1028q-11 0 -23 0.5t-26 3.5q-25 5 -44.5 17t-19.5 38q0 22 21 62.5t55 92.5t77 110.5t87 115.5l66 -26zM676 1028q-11 0 -23 0.5t-26 3.5q-25 5 -44.5 17t-19.5 38q0 22 21 62.5t55 92.5t77 110.5t87 115.5l66 -26z" />
    <glyph glyph-name="quotedblright" unicode="&#x201d;" horiz-adv-x="645" 
d="M430 1470q12 0 25.5 -0.5t27.5 -3.5q25 -5 43.5 -17.5t18.5 -35.5q0 -20 -14 -50t-42.5 -74.5t-72.5 -106t-105 -144.5l-63 29zM723 1470q12 0 25.5 -0.5t27.5 -3.5q25 -5 43.5 -17.5t18.5 -35.5q0 -20 -14 -50t-42.5 -74.5t-72.5 -106t-105 -144.5l-63 29z" />
    <glyph glyph-name="quotedblbase" unicode="&#x201e;" horiz-adv-x="721" 
d="M113 -242l-64 23q16 45 30 84t27 75t25.5 71t26.5 71q24 63 47.5 89t52.5 26q14 0 28.5 -4t28 -10.5t24.5 -13.5t19 -13zM406 -242l-64 23q16 45 30 84t27 75t25.5 71t26.5 71q24 63 47.5 89t52.5 26q14 0 28.5 -4t28 -10.5t24.5 -13.5t19 -13z" />
    <glyph glyph-name="dagger" unicode="&#x2020;" horiz-adv-x="811" 
d="M940 963q0 -38 -33 -51t-90 -13q-51 0 -97.5 14t-78.5 41q43 31 94.5 44.5t102.5 13.5q48 0 75 -11.5t27 -37.5zM561 1188q0 21 2.5 47.5t10 49.5t22.5 38.5t41 15.5q28 0 38.5 -18t10.5 -49q0 -21 -6 -50t-17.5 -61t-29 -63t-41.5 -56q-9 13 -15 32.5t-9.5 40.5t-5 40.5
t-1.5 32.5zM309 899q-48 0 -74 12.5t-26 40.5q0 35 32 47.5t89 12.5q13 0 35.5 -2.5t47.5 -8.5t50 -17t43 -28q-25 -18 -53 -29.5t-55 -17.5t-50.5 -8t-38.5 -2zM473 696q2 13 8.5 36t17 49t26 53t36.5 49q15 -22 21.5 -49t8 -53.5t-0.5 -49.5t-4 -35l-152 -856
q-3 -19 -9.5 -42.5t-17 -48.5t-25.5 -49.5t-36 -45.5q-15 21 -21.5 48.5t-8 53.5t0.5 49t5 35z" />
    <glyph glyph-name="daggerdbl" unicode="&#x2021;" horiz-adv-x="815" 
d="M342 -4q-43 -31 -94.5 -44t-102.5 -13q-49 0 -75.5 11.5t-26.5 37.5q0 37 32 50t89 13q13 0 35.5 -2.5t48 -8.5t51 -16.5t43.5 -27.5zM391 -92q20 -32 25.5 -73t5.5 -73q0 -25 -3 -52t-11.5 -49t-23.5 -36t-38 -14q-51 0 -51 72q0 66 27 123.5t69 101.5zM653 -61
q-52 0 -99 13.5t-79 41.5q25 18 54.5 29.5t57 17.5t50.5 8t35 2q49 0 75.5 -11.5t26.5 -37.5q0 -35 -32 -49t-89 -14zM940 963q0 -38 -33 -51t-90 -13q-51 0 -97.5 14t-78.5 41q43 31 94.5 44.5t102.5 13.5q48 0 75 -11.5t27 -37.5zM561 1188q0 21 2.5 47.5t10 49.5
t22.5 38.5t41 15.5q28 0 38.5 -18t10.5 -49q0 -21 -6 -50t-17.5 -61t-29 -63t-41.5 -56q-9 13 -15 32.5t-9.5 40.5t-5 40.5t-1.5 32.5zM309 899q-48 0 -74 12.5t-26 40.5q0 35 32 47.5t89 12.5q13 0 35.5 -2.5t47.5 -8.5t50 -17t43 -28q-25 -18 -53 -29.5t-55 -17.5
t-50.5 -8t-38.5 -2zM473 696q2 13 8.5 36t17 49t26 53t36.5 49q15 -22 21.5 -49t8 -53.5t-0.5 -49.5t-4 -35l-76 -432q-3 -19 -9.5 -42.5t-17 -48.5t-25.5 -49.5t-36 -45.5q-15 21 -21.5 48.5t-8 53.5t0.5 49t4 35z" />
    <glyph glyph-name="bullet" unicode="&#x2022;" 
d="M416 592q0 56 18.5 101t50 77t74.5 49t92 17q39 0 71 -12.5t55.5 -36t36.5 -56.5t13 -74q0 -59 -19 -105t-51 -78t-73 -49t-86 -17t-79.5 13.5t-57 38t-34 58.5t-11.5 74z" />
    <glyph glyph-name="ellipsis" unicode="&#x2026;" horiz-adv-x="1456" 
d="M115 61q0 28 10 51t27 39.5t39 25.5t45 9q42 0 66 -23.5t24 -62.5q0 -26 -9.5 -48.5t-26 -39.5t-38.5 -27t-47 -10q-44 0 -67 23t-23 63zM645 61q0 28 10 51t27 39.5t39 25.5t45 9q42 0 66 -23.5t24 -62.5q0 -26 -9.5 -48.5t-26 -39.5t-38.5 -27t-47 -10q-44 0 -67 23
t-23 63zM1159 61q0 28 10 51t27 39.5t39 25.5t45 9q42 0 66 -23.5t24 -62.5q0 -26 -9.5 -48.5t-26 -39.5t-38.5 -27t-47 -10q-44 0 -67 23t-23 63z" />
    <glyph glyph-name="perthousand" unicode="&#x2030;" horiz-adv-x="1794" 
d="M860 53q40 0 80 18.5t72.5 55t52.5 92.5t20 131q0 96 -37 140.5t-108 44.5q-44 0 -83 -21.5t-68.5 -61.5t-46.5 -97.5t-17 -129.5q0 -88 36.5 -130t98.5 -42zM1495 55q40 0 80 18.5t72.5 55t52.5 92.5t20 131q0 96 -37 140.5t-108 44.5q-44 0 -83 -21.5t-68.5 -61.5
t-46.5 -97.5t-17 -129.5q0 -88 36.5 -130t98.5 -42zM1595 621q50 0 91 -15.5t70 -46.5t45 -78t16 -110q0 -85 -23 -157.5t-66.5 -125.5t-106 -83t-140.5 -30q-106 0 -161.5 63.5t-55.5 184.5q0 86 23.5 159t67 126t104.5 83t136 30zM961 621q100 0 160.5 -62t60.5 -188
q0 -85 -23 -157.5t-66.5 -125.5t-106 -83t-140.5 -30q-105 0 -161 63.5t-56 184.5q0 86 23.5 159t67 126t105 83t136.5 30zM549 1346q100 0 160.5 -62t60.5 -188q0 -85 -23 -157.5t-66.5 -125.5t-106 -83t-140.5 -30q-105 0 -161 63.5t-56 184.5q0 86 23.5 159t67 126
t105 83t136.5 30zM449 782q40 0 80 18.5t72 55t52.5 92.5t20.5 131q0 96 -37 140.5t-109 44.5q-44 0 -83 -21.5t-68 -61.5t-46.5 -97.5t-17.5 -129.5q0 -88 37 -130t99 -42zM199 350l1034 758l49 -76l-1038 -758z" />
    <glyph glyph-name="guilsinglleft" unicode="&#x2039;" horiz-adv-x="606" 
d="M332 535l211 -334l-60 -45q-30 34 -67 78t-72.5 89t-65.5 85.5t-45 66.5q-12 22 -17 36t-5 24q0 20 18.5 39.5t42.5 39.5q76 62 171 130.5t192 136.5l43 -62z" />
    <glyph glyph-name="guilsinglright" unicode="&#x203a;" horiz-adv-x="606" 
d="M229 834l54 47q72 -68 143 -136.5t125 -130.5q14 -17 24.5 -33.5t10.5 -33.5q0 -11 -10.5 -28.5t-34.5 -43.5q-25 -26 -69 -66.5t-96 -85.5t-105 -89t-95 -78l-45 53l336 340z" />
    <glyph glyph-name="fraction" unicode="&#x2044;" horiz-adv-x="330" 
d="M-184 45l825 1286l88 -43l-829 -1288z" />
    <glyph glyph-name="uni2074" unicode="&#x2074;" horiz-adv-x="743" 
d="M748 1208l-43 -241h149l-14 -84h-148l-33 -185h-102l33 185h-348l14 86l346 540l80 -34l-322 -508h244l17 90l63 151h64z" />
    <glyph glyph-name="Euro" unicode="&#x20ac;" horiz-adv-x="1096" 
d="M1053 729h-838l14 86h250q-40 35 -59 83.5t-19 102.5q0 63 25.5 125t79.5 110.5t138.5 79t203.5 30.5q56 0 113.5 -10.5t113 -34t107 -61.5t96.5 -93l-76 -64q-30 39 -68.5 71.5t-84.5 56t-98.5 36.5t-110.5 13q-98 0 -162.5 -24.5t-102.5 -62.5t-53.5 -84.5t-15.5 -91.5
q0 -50 17.5 -84.5t46 -56.5t63 -31.5t69.5 -9.5h365zM1012 498h-365q-44 0 -92.5 -14t-89.5 -44t-67.5 -77.5t-26.5 -114.5q0 -42 13 -77.5t44 -61.5t82 -41t127 -15q99 0 208.5 37t209.5 113l47 -72q-67 -49 -132 -81t-126.5 -50.5t-119.5 -25.5t-110 -7q-95 0 -161.5 21.5
t-108.5 57.5t-61 83t-19 98q0 85 40.5 155.5t125.5 115.5h-256l14 86h838z" />
    <glyph glyph-name="trademark" unicode="&#x2122;" horiz-adv-x="1378" 
d="M702 1362v-86h-210v-602h-99v602h-203v86h512zM1419 1362l47 -688h-90l-30 540l-191 -505h-82l-180 499l-35 -534h-88l49 688h107l192 -545l203 545h98z" />
    <glyph glyph-name="glyph223" 
d="M514 1618q40 28 86 40.5t84 12.5q37 0 68.5 -8t61 -17.5t58.5 -17.5t62 -8q31 0 64 9.5t61 25.5l-2 -103q-34 -15 -65.5 -24.5t-73.5 -9.5q-33 0 -66.5 6.5t-67 15t-65.5 15t-60 6.5q-38 0 -73.5 -9.5t-75.5 -29.5z" />
    <glyph glyph-name="glyph224" 
d="M477 1520q84 85 144 139t100 88q35 29 59.5 40t44.5 11t39.5 -10.5t42.5 -38.5q34 -40 77 -99.5t91 -133.5l-49 -35l-213 198l-289 -200z" />
    <glyph glyph-name="glyph225" 
d="M967 1819q24 -16 44.5 -33.5t20.5 -40.5q0 -15 -6.5 -26t-17 -21t-23 -18t-24.5 -17q-44 -29 -121.5 -74.5t-198.5 -111.5l-29 49z" />
    <glyph glyph-name="glyph226" 
d="M989 1526l-45 -49q-96 66 -158 111.5t-96 74.5q-12 11 -28.5 28.5t-16.5 39.5q0 15 8 27.5t21.5 22.5t31 19.5t35.5 18.5z" />
    <glyph glyph-name="glyph227" 
d="M522 1581q0 23 8.5 43t23 34.5t34 23t41.5 8.5q34 0 53.5 -22t19.5 -56q0 -24 -9 -44t-24 -34.5t-34.5 -22.5t-40.5 -8q-32 0 -52 21.5t-20 56.5zM887 1581q0 23 8.5 43t23 34.5t34 23t40.5 8.5q34 0 54 -22t20 -56q0 -24 -9 -44t-24.5 -34.5t-35 -22.5t-40.5 -8
q-32 0 -51.5 21.5t-19.5 56.5z" />
    <glyph glyph-name="glyph228" 
d="M788 1597l289 207l43 -39q-45 -48 -82 -85t-67.5 -65t-56 -49t-46.5 -38t-45.5 -32t-50.5 -15q-25 0 -42 10.5t-36 30.5q-18 21 -36.5 43.5t-39.5 51t-44.5 64t-51.5 82.5l49 35z" />
    <glyph glyph-name="glyph231" horiz-adv-x="0" 
 />
    </font>
</defs>
</svg>
